<?xml version="1.0" standalone="no"?>
<!DOCTYPE svg PUBLIC "-//W3C//DTD SVG 1.1//EN" "http://www.w3.org/Graphics/SVG/1.1/DTD/svg11.dtd" >
<svg xmlns="http://www.w3.org/2000/svg">
<metadata>Generated by IcoMoon</metadata>
<defs>
<font id="icomoon" horiz-adv-x="1024">
<font-face units-per-em="1024" ascent="960" descent="-64" />
<missing-glyph horiz-adv-x="1024" />
<glyph unicode="&#x20;" horiz-adv-x="512" d="" />
<glyph unicode="&#xe900;" glyph-name="a4" d="M949.020 490.212c-1.616 14.973-14.95 25.85-29.924 24.235s-25.873-14.973-24.235-29.946c1.434-13.426 2.139-27.034 2.139-40.573 0-210.102-170.962-381.087-381.042-381.087s-381.042 170.985-381.042 381.087 170.94 381.087 381.019 381.087c75.958 0 149.185-22.209 211.945-64.307 12.516-8.329 29.423-5.006 37.751 7.487 8.329 12.516 5.029 29.423-7.464 37.774-71.794 48.128-155.489 73.569-242.233 73.569-58.778 0-115.849-11.469-169.506-34.202-51.814-21.936-98.418-53.339-138.399-93.321-39.982-40.073-71.452-86.608-93.389-138.468-22.71-53.68-34.179-110.751-34.179-169.529s11.469-115.78 34.27-169.62c21.936-51.792 53.316-98.418 93.298-138.399s86.494-71.361 138.377-93.321c53.658-22.71 110.751-34.202 169.506-34.202 58.778 0 115.849 11.583 169.688 34.202 51.769 21.959 98.395 53.339 138.377 93.321s71.361 86.539 93.298 138.399c22.733 53.68 34.202 110.751 34.202 169.529 0 15.406-0.842 31.061-2.458 46.285zM313.845 439.854c-10.627 10.627-27.898 10.627-38.525 0s-10.627-27.898 0-38.548l176.742-176.674c5.257-5.348 12.242-8.010 19.228-8.010 6.963 0 13.949 2.64 19.297 7.919l392.351 392.397c10.65 10.627 10.65 27.898 0 38.525-10.627 10.627-27.898 10.627-38.525 0l-373.055-373.168-157.514 157.559z" />
<glyph unicode="&#xe901;" glyph-name="24" d="M379.517 356.864l-26.465-23.711v-19.069h159.13v25.805h-111.98v0.728l19.934 16.976c52.588 46.717 85.925 80.987 85.925 123.403 0 32.927-22.596 66.856-76.299 66.856-28.786 0-53.316-9.899-70.61-23.324l10.741-21.959c11.514 8.897 30.31 19.479 52.952 19.479 37.205 0 49.471-21.595 49.471-44.942-0.387-34.588-29.127-64.375-92.797-120.24zM685.943 314.106v62.578h34.862v24.417h-34.862v142.859h-36.432l-111.252-146.728v-20.548h115.78v-62.578h31.903zM572.416 401.101v0.728l60.985 78.165c6.918 10.604 13.062 20.48 20.662 33.951h1.161c-0.728-12.038-1.161-24.098-1.161-36.045v-76.8h-81.647zM935.504 590.973l-33.269-14.882c25.304-53.726 38.161-111.275 38.161-170.917 0-226.145-188.803-410.192-420.796-410.192-232.061 0-420.841 184.070-420.841 410.192 0 226.236 188.78 410.237 420.841 410.237 37.569 0 74.524-4.938 110.342-14.404l-78.802-21.936 10.081-34.315 128.046 35.658-0.478 1.684 27.853-9.58-109.181 142.723-29.4-21.345 40.892-53.407c-32.472 7.054-65.718 10.559-99.351 10.559-252.245 0-457.432-199.999-457.432-445.895 0-245.828 205.187-445.85 457.432-445.85 252.177 0 457.387 200.021 457.387 445.85-0.023 64.853-13.972 127.34-41.483 185.822z" />
<glyph unicode="&#xe902;" glyph-name="close" d="M961.559-16.555c-5.825 0-11.651 2.23-16.088 6.667l-878.706 878.683c-8.897 8.897-8.897 23.279 0 32.176s23.279 8.897 32.176 0l878.706-878.683c8.897-8.897 8.897-23.279 0-32.176-4.437-4.437-10.263-6.667-16.088-6.667zM82.853-16.555c-5.825 0-11.651 2.23-16.088 6.667-8.897 8.897-8.897 23.279 0 32.176l878.706 878.683c8.897 8.897 23.279 8.897 32.176 0s8.897-23.279 0-32.176l-878.706-878.683c-4.437-4.437-10.263-6.667-16.088-6.667z" />
<glyph unicode="&#xe903;" glyph-name="mine" d="M924.763 122.664l-4.619 8.624c-30.060 56.934-86.471 83.24-151.689 113.732-36.955 17.249-78.734 36.796-119.808 64.307-4.688 10.49-2.298 46.808 2.549 58.8 67.243 43.804 76.481 105.040 77.164 130.89 15.155 13.722 42.712 45.466 41.415 94.39-1.206 48.333-18.204 70.019-31.949 79.69-1.502 24.257-6.963 77.687-26.351 121.651-15.997 36.227-66.332 120.172-188.621 121.242-0.205 0-0.341 0.046-0.501 0.046-0.341 0-0.592-0.023-0.887-0.023-0.319 0-0.592 0.023-0.91 0.023-0.182 0-0.364-0.046-0.478-0.046-120.673-1.070-170.826-84.992-186.869-121.242-19.319-43.759-24.075-96.893-25.236-121.446-14.199-9.603-31.835-31.289-33.087-79.895-1.274-49.129 27.17-80.919 42.758-94.572 0.705-26.032 10.058-87.063 77.119-130.708 4.87-11.992 7.259-48.31 2.617-58.8-41.119-27.511-82.921-47.058-119.854-64.307-65.24-30.492-121.583-56.752-151.711-113.732l-4.597-8.624c-14.564-27.329-15.565-31.107-14.973-58.231 0.114-5.552 0.273-12.447 0.273-21.367 0-25.691 19.024-38.889 25.35-43.281 14.882-10.308 43.577-12.629 103.492-12.629 16.68 0 35.794 0.182 57.685 0.41 36.386 0.41 77.596 0.842 122.175 0.364h0.273c11.56 0 21.003 9.33 21.14 20.935 0.137 11.696-9.239 21.254-20.958 21.367-45.033 0.478-86.494 0.046-123.085-0.319-61.372-0.705-124.905-1.343-136.624 4.665-7.1 4.983-7.1 7.1-7.1 8.488 0 9.284-0.137 16.498-0.273 22.278-0.364 17.909-0.364 17.909 10.012 37.433l4.665 8.761c23.461 44.396 71.452 66.81 132.187 95.164 38.889 18.182 82.99 38.798 127.386 68.79 13.562 9.148 19.888 28.262 19.342 58.345-0.273 16.589-3.004 56.434-21.641 68.13-65.809 41.074-60.689 102.172-60.462 104.607 0.887 7.828-2.799 15.588-9.353 20.002-1.411 0.956-34.588 23.734-33.496 65.764 0.956 36.363 12.811 45.010 15.679 46.603 5.166 0.182 8.715 2.276 12.516 6.007 3.959 4.005 4.574 9.284 4.551 14.905 0 0.683 0.159 68.358 21.982 117.806 15.77 35.749 56.206 95.596 149.504 96.006 98.395-0.41 138.604-67.22 151.324-96.006 21.891-49.63 23.256-117.51 23.256-118.17 0.159-9.717 6.918-18.045 16.27-20.252 4.119-1.843 14.313-13.426 15.155-46.899 1.115-42.189-31.039-64.967-32.313-65.832-6.531-4.392-10.081-12.106-9.239-19.911 0.091-0.637 6.235-63.010-60.439-104.607-18.682-11.696-21.367-51.519-21.663-68.13-0.569-30.083 5.803-49.198 19.319-58.345 44.464-29.992 88.519-50.631 127.408-68.79 60.757-28.353 108.726-50.745 132.187-95.164l4.688-8.761c10.399-19.502 10.399-19.502 10.012-37.433-0.137-5.78-0.25-12.971-0.25-22.278 0-1.388 0-3.504-6.758-8.215-12.083-6.258-75.639-5.643-137.034-4.938-36.568 0.364-78.052 0.796-123.085 0.319-11.696-0.137-21.072-9.694-20.958-21.367 0.137-11.605 9.603-20.935 21.185-20.935h0.273c44.533 0.478 85.788 0.046 122.129-0.364 21.914-0.228 41.028-0.41 57.731-0.41 59.87 0 88.61 2.321 103.515 12.629 6.258 4.392 25.327 17.59 25.327 43.281 0 8.943 0.159 15.815 0.25 21.367 0.523 27.102-0.41 30.879-14.996 58.209z" />
<glyph unicode="&#xe904;" glyph-name="a5" d="M845.096 758.363c-85.925 86.039-200.135 133.325-321.718 133.325-121.606 0-235.793-47.377-321.741-133.325-85.948-85.925-133.325-200.226-133.325-321.741 0-121.606 47.377-235.77 133.325-321.741s200.249-133.325 321.741-133.325c121.515 0 235.793 47.377 321.741 133.325s133.325 200.226 133.325 321.741c0 121.606-47.377 235.816-133.348 321.741zM831.056 128.944c-82.125-82.148-191.442-127.477-307.678-127.477s-225.462 45.306-307.701 127.477c-82.148 82.125-127.454 191.442-127.454 307.678s45.306 225.462 127.454 307.701c82.239 82.148 191.465 127.454 307.701 127.454s225.462-45.306 307.678-127.454c82.261-82.148 127.477-191.465 127.477-307.701s-45.329-225.462-127.477-307.678zM459.116 620.919h123.631c6.053 0 10.968 4.779 10.968 10.672s-4.938 10.672-10.968 10.672h-123.631c-6.053 0-10.968-4.779-10.968-10.672s4.915-10.672 10.968-10.672zM442.3 489.916h157.264c6.076 0 10.945 4.756 10.945 10.672 0 5.894-4.892 10.672-10.945 10.672h-157.264c-6.053 0-10.968-4.779-10.968-10.672s4.915-10.672 10.968-10.672zM648.624 612.841h-29.423c-6.053 0-10.945-4.779-10.945-10.672s4.915-10.672 10.945-10.672h29.423c19.115 0 34.657-15.155 34.657-33.746v-275.684c0-18.614-15.565-33.746-34.657-33.746h-255.408c-19.092 0-34.657 15.132-34.657 33.746v275.684c0 18.614 15.565 33.746 34.657 33.746h29.81c6.053 0 10.968 4.779 10.968 10.672s-4.915 10.672-10.968 10.672h-29.81c-31.198 0-56.57-24.713-56.57-55.091v-275.684c0-30.379 25.395-55.114 56.57-55.114h255.408c31.198 0 56.57 24.735 56.57 55.114v275.684c0.023 30.379-25.35 55.091-56.57 55.091zM599.563 345.077h-157.264c-6.053 0-10.968-4.756-10.968-10.672 0-5.894 4.915-10.672 10.968-10.672h157.264c6.076 0 10.945 4.779 10.945 10.672 0.023 5.916-4.87 10.672-10.945 10.672zM599.563 428.157h-157.264c-6.053 0-10.968-4.779-10.968-10.672s4.915-10.672 10.968-10.672h157.264c6.076 0 10.945 4.779 10.945 10.672s-4.87 10.672-10.945 10.672z" />
<glyph unicode="&#xe905;" glyph-name="a6" d="M845.096 758.363c-85.925 86.039-200.158 133.325-321.718 133.325s-235.793-47.377-321.741-133.325c-85.948-85.925-133.325-200.226-133.325-321.741 0-121.606 47.377-235.77 133.325-321.741s200.249-133.325 321.741-133.325 235.793 47.377 321.741 133.325c85.948 85.948 133.302 200.226 133.302 321.741 0 121.606-47.354 235.816-133.325 321.741zM831.056 128.944c-82.125-82.148-191.442-127.477-307.678-127.477s-225.462 45.306-307.701 127.477c-82.148 82.125-127.454 191.442-127.454 307.678s45.306 225.462 127.454 307.701c82.239 82.148 191.465 127.454 307.701 127.454s225.439-45.306 307.678-127.454c82.261-82.148 127.477-191.465 127.477-307.701s-45.329-225.462-127.477-307.678zM447.351 428.612h-7.942c-3.732 0-6.736-3.026-6.758-6.758v-40.573c0-3.709 3.026-6.758 6.758-6.758h7.964c3.732 0 6.736 3.026 6.736 6.758v40.528c0 3.777-3.026 6.804-6.758 6.804zM743.515 482.679l0.023 27.034-0.023 13.517v40.55c0 14.928-12.083 27.034-27.034 27.034h-378.47c-14.928 0-27.034-12.083-27.034-27.034l-0.023-54.067v-27.034c22.391 0 40.55-18.136 40.55-40.55 0-22.369-18.182-40.55-40.573-40.55l0.023-27.034-0.023-27.034v-27.034c0-14.905 12.106-27.034 27.034-27.034l378.47 0.023c14.928 0 27.034 12.106 27.034 27.034l-0.023 13.517v40.528l0.023 27.034c-22.391 0-40.573 18.182-40.573 40.573 0.091 22.391 18.227 40.528 40.619 40.528zM723.945 377.799v-48.060c0-7.737-6.258-15.36-14.040-15.383l-255.795-0.228v26.624c0 3.732-3.004 6.736-6.758 6.736l-7.942 0.023c-3.732 0-6.781-3.026-6.758-6.758v-26.146h-88.018c-7.76 0.023-14.040 7.396-14.063 15.132l0.023 48.082c24.781 10.854 42.143 35.521 42.143 64.284 0 28.831-17.362 53.498-42.143 64.353v48.037c0 7.76 6.303 14.063 14.063 14.063l88.018 0.774v-25.828c0-3.732 3.004-6.736 6.758-6.758l7.942-0.023c3.732 0 6.758 3.049 6.758 6.758v25.85l255.772-0.774c7.76 0 14.040-6.281 14.040-14.063l0.023-48.037c-24.826-10.832-42.189-35.544-42.166-64.353 0-28.763 17.34-53.43 42.143-64.307zM447.351 509.713h-7.942c-3.755 0-6.758-3.004-6.758-6.736v-40.55c0-3.732 3.026-6.758 6.758-6.758h7.964c3.732 0 6.736 3.049 6.736 6.758v40.55c0 3.709-3.026 6.736-6.758 6.736z" />
<glyph unicode="&#xe906;" glyph-name="a7" d="M845.119 758.363c-85.948 86.039-200.158 133.325-321.741 133.325s-235.793-47.377-321.741-133.325c-85.948-85.925-133.302-200.226-133.302-321.741 0-121.606 47.354-235.77 133.302-321.741 85.925-85.948 200.249-133.325 321.741-133.325s235.793 47.377 321.741 133.325c85.948 85.948 133.325 200.226 133.325 321.741 0 121.606-47.377 235.816-133.325 321.741zM831.078 128.944c-82.125-82.148-191.442-127.477-307.678-127.477s-225.462 45.306-307.678 127.477c-82.148 82.125-127.477 191.442-127.477 307.678s45.284 225.462 127.454 307.701c82.216 82.148 191.442 127.454 307.678 127.454s225.462-45.306 307.678-127.454c82.261-82.148 127.477-191.465 127.477-307.701s-45.306-225.462-127.454-307.678zM465.988 319.158v16.225h-120.4v-16.225h120.4zM297.21 573.906v0l0.023-279.393h-0.023v-26.601h34.862c0.387-0.023 0.705-0.114 1.092-0.114h380.427c0.387 0 0.728 0.091 1.115 0.114h34.839v16.202h-422.798c-10.763 0-13.289 2.207-13.312 13.198v196.745h419.908v-172.965h16.202v212.878h0.023v66.514h-452.358v-26.578zM313.435 571.085c0.023 10.991 2.549 13.221 13.312 13.221h393.284c10.786 0 13.312-2.207 13.312-13.289v-62.987h-419.908v63.056zM571.21 319.158v16.225h-88.724v-16.225h88.724z" />
<glyph unicode="&#xe907;" glyph-name="mobile" d="M516.050 93.855c-39.458 0-71.612 32.040-71.612 71.521s32.154 71.589 71.612 71.589c39.504 0 71.634-32.131 71.634-71.589s-32.154-71.521-71.634-71.521zM516.050 201.717c-20.070 0-36.341-16.27-36.341-36.363 0-20.048 16.27-36.272 36.341-36.272 20.116 0 36.341 16.225 36.341 36.272 0 20.116-16.361 36.363-36.341 36.363zM676.614-10.001c-3.026 0-6.144 0.796-9.011 2.48-39.458 23.37-103.287 23.279-104.038 23.279h-272.748c-52.042 0-94.254 42.28-94.254 94.14v693.953c0 51.974 42.325 94.162 94.254 94.162h450.378c52.042 0 94.231-42.28 94.231-94.162v-693.953c0-51.996-42.303-94.14-94.231-94.14-9.694 0-17.636 7.919-17.636 17.59s7.964 17.636 17.636 17.636c32.586 0 58.982 26.351 58.982 58.891v693.976c0 32.495-26.396 58.914-58.982 58.914h-450.378c-32.54 0-58.96-26.442-58.96-58.914v-693.953c0-32.54 26.419-58.891 58.96-58.891h272.566c4.005 0 74.661 0.046 122.266-28.217 8.351-5.029 11.196-15.724 6.167-24.166-3.345-5.575-9.125-8.624-15.201-8.624zM590.211 794.954h-148.343c-9.694 0-17.636 7.942-17.636 17.613s7.942 17.636 17.636 17.636h148.343c9.694 0 17.636-7.942 17.636-17.613s-7.942-17.636-17.636-17.636zM700.439 718.131c9.33 0 16.93-7.532 16.93-16.93v-360.22c0-9.284-7.509-16.93-16.93-16.93h-368.777c-9.307 0-16.953 7.509-16.953 16.93v360.22c0 9.33 7.555 16.93 16.953 16.93h368.777zM700.439 753.357h-368.777c-28.809 0-52.201-23.393-52.201-52.156v-360.22c0-28.809 23.415-52.178 52.201-52.178h368.777c28.809 0 52.224 23.37 52.224 52.178v360.22c0 28.763-23.438 52.156-52.224 52.156v0z" />
<glyph unicode="&#xe908;" glyph-name="dun" d="M506.175-21.606l-7.828 2.799c-149.641 53.385-270.973 159.698-341.629 299.395-70.337 139.15-83.604 297.415-37.387 445.713l4.961 15.838 16.907 0.023c128.068 0.25 249.333 41.438 350.731 119.125l14.108 10.809 14.086-10.832c101.103-77.665 222.481-118.852 351.004-119.103l16.907-0.023 4.938-15.838c46.262-148.298 32.973-306.563-37.41-445.69-70.633-139.719-191.966-246.033-341.606-299.395l-7.782-2.822zM158.492 697.583c-77.824-277.754 72.249-568.821 347.682-671.357 275.433 102.559 425.483 393.626 347.659 671.357-64.011 1.843-126.794 13.289-186.846 34.088-57.64 19.934-111.73 48.082-161.041 83.809-49.334-35.681-103.378-63.807-160.859-83.763-59.984-20.799-122.675-32.29-186.596-34.133zM464.327 260.426c-5.894 0-11.742 2.23-16.202 6.576l-129.434 126.817c-8.943 8.738-8.943 22.915 0 31.698 8.943 8.761 23.415 8.761 32.358 0l113.277-110.979 242.734 237.796c8.966 8.761 23.461 8.761 32.381 0 8.943-8.761 8.943-22.938 0-31.698l-258.935-253.633c-4.483-4.369-10.331-6.576-16.179-6.576z" />
<glyph unicode="&#xe909;" glyph-name="card3" d="M978.921 188.837h-28.558v331.594h-877.386v-422.047h905.944l0.068-29.787h-934.662v692.929h934.684l-0.091-572.689zM950.363 731.466h-877.386v-180.884h877.409v180.884zM101.535 218.965h334.78v-30.128h-334.78v30.128zM707.607 218.965v-30.128h-211.012v30.128h211.012z" />
<glyph unicode="&#xe90a;" glyph-name="zuo" d="M85.242 100.91h852.764v-41.688h-852.764v41.688zM255.863 245.589h511.522v-41.734h-511.522v41.734zM720.031 654.871c-79.44-22.96-119.899-35.339-207.303-35.339-91.682 0-138.331 13.608-221.161 38.775 11.537-3.618 30.697-9.489 32.495-9.193-2.435-14.586-5.166-29.059-8.101-43.418 75.981-19.593 114.256-30.060 196.767-30.060s118.579 10.468 194.606 30.037c-3.004 14.382-5.712 28.877-8.169 43.44 1.138-0.046 11.036 2.799 20.867 5.757zM852.696 820.622h-682.143c-47.127 0-85.311-37.296-85.311-83.376v-588.277c112.344 146.091 192.535 270.928 230.696 456.727 2.935 14.382 5.666 28.877 8.101 43.44-1.798-0.296-20.958 5.575-32.495 9.193-5.097 1.593-8.715 2.776-8.715 2.776 0-0.023 0-0.023 0-0.046v0c-24.758-151.393-78.279-247.262-154.943-374.352v429.716c0 34.543 28.626 62.532 63.989 62.532h639.477c35.362 0 63.989-27.989 63.989-62.532v-429.761c-76.686 127.090-130.185 222.936-154.965 374.283 0 0.023 0 0.023 0 0.068 0 0.023 0 0.023 0 0.046 0 0-10.149-3.14-20.389-6.212-9.83-2.958-19.706-5.803-20.867-5.734 2.458-14.586 5.188-29.059 8.169-43.44 38.116-185.799 118.352-310.636 230.673-456.727v588.299c0.046 46.080-38.161 83.376-85.265 83.376z" />
<glyph unicode="&#xe90b;" glyph-name="suo" d="M774.508-24.724h-533.641c-53.589 0-97.007 42.894-97.007 95.778v374.534c0 52.884 43.418 95.755 97.007 95.755v71.817c0 145.454 119.467 263.327 266.832 263.327 147.388 0 266.809-117.874 266.809-263.327v-1.502h-0.273c-0.819-12.47-11.127-22.437-24.007-22.437s-23.097 9.967-23.939 22.437h-0.296v1.502c0 118.989-97.758 215.427-218.317 215.427s-218.317-96.438-218.317-215.427v-71.817h485.126c53.589 0 97.030-42.849 97.030-95.755v-374.534c0.023-52.884-43.395-95.778-97.007-95.778v0zM823.046 445.588c0 26.442-21.732 47.878-48.538 47.878h-533.641c-26.806 0-48.515-21.436-48.515-47.878v-374.534c0-26.465 21.709-47.9 48.515-47.9h533.641c26.806 0 48.538 21.436 48.538 47.9v374.534zM542.925 281.088v-127.022c0-11.651-10.49-21.094-23.461-21.094-12.993 0-23.506 9.444-23.506 21.094v127.022c-27.193 8.784-46.945 31.516-46.945 59.005 0 34.93 31.539 63.238 70.451 63.238 38.889 0 70.428-28.308 70.428-63.238 0-27.466-19.752-50.222-46.967-59.005v0zM519.464 361.165c-12.993 0-23.506-9.398-23.506-21.072 0-11.628 10.513-21.094 23.506-21.094 12.971 0 23.461 9.466 23.461 21.094 0 11.674-10.49 21.072-23.461 21.072v0z" />
<glyph unicode="&#xe90c;" glyph-name="ren1" d="M657.658 58.197l-134.281 0.159-134.303-0.159c-106.974 0-164.318 1.274-200.977 8.351-28.331 5.484-65.946 18.386-65.946 66.97 0 88.064 212.673 124.086 283.034 133.598-0.683 3.322-2.298 8.624-5.825 16.498-46.967 29.628-85.151 73.273-108.43 124.177-22.505 16.293-41.825 41.734-48.219 64.080-8.602 29.969 0.637 62.1 22.164 81.533l-0.159 8.988c-1.616 81.169-3.436 173.17 56.366 234.109 42.303 43.099 108.453 64.057 202.251 64.057 93.867 0 159.994-20.958 202.297-64.057 59.779-60.962 57.981-152.963 56.411-234.2l-0.182-9.034c21.504-19.433 30.743-51.496 22.141-81.419-6.326-22.187-25.623-47.559-48.037-63.829-23.256-50.904-61.417-94.663-108.407-124.336-3.504-7.896-5.211-13.221-5.939-16.475 70.884-9.466 282.965-45.215 282.965-133.712 0-75.298-72.658-75.298-266.923-75.298zM523.378 105.529l134.281-0.137c182.75 0 219.728 4.71 219.728 28.103 0 24.394-97.212 69.951-255.499 88.633l-7.828 0.91-5.734 5.461c-9.512 9.193-14.586 21.117-14.586 34.452 0 12.516 4.688 28.080 14.29 47.605l3.072 6.281 6.030 3.55c43.327 25.759 78.234 65.764 98.236 112.594l2.867 6.736 6.212 3.937c15.064 9.512 30.379 27.967 34.111 41.165 4.46 15.474-2.913 30.857-12.288 36.272l-11.992 6.918 0.546 35.157c1.456 75.412 3.004 153.395-42.917 200.203-32.973 33.587-88.11 49.926-168.619 49.926-80.486 0-135.623-16.338-168.55-49.903-45.921-46.808-44.373-124.769-42.917-200.158l0.546-35.112-12.015-6.918c-9.421-5.439-16.816-20.912-12.356-36.409 3.823-13.289 19.206-31.881 34.293-41.392l6.212-3.914 2.958-6.736c20.025-46.785 54.955-86.744 98.304-112.435l6.053-3.595 3.072-6.281c9.535-19.297 14.154-34.839 14.154-47.491 0-13.54-5.279-25.623-15.246-34.862l-5.621-5.211-7.6-0.933c-158.128-18.887-255.204-64.284-255.204-88.428 0-9.535 0-15.246 27.694-20.617 32.7-6.326 90.294-7.464 191.989-7.464l134.326 0.091z" />
<glyph unicode="&#xe90d;" glyph-name="card2" d="M946.927 225.746c13.289 0 24.098 10.377 24.098 23.211v425.552c-0.023 48.742-41.051 88.269-91.659 88.269h-726.949c-50.608 0-91.546-39.526-91.546-88.269v-477.685c0-48.674 40.937-88.269 91.546-88.269h727.017c50.631 0 91.637 39.595 91.637 88.269v73.523c-0.091 12.743-10.809 23.074-24.121 23.074-13.221 0-4.324-1.479-4.324-14.199v-85.333c0-25.6-30.265-56.889-56.889-56.889h-739.533c-26.601 0-56.889 31.289-56.889 56.889v312.889h853.333v-284.444c0-12.88-9.011 3.413 4.278 3.413v0zM89.316 677.444c0 25.691 30.379 56.889 56.889 56.889h739.556c26.624 0 56.889-31.198 56.889-56.889v-56.889h-853.333v56.889zM89.316 535.222v56.889h853.333v-56.889h-853.333zM629.76 307.666h-85.333v-85.333h85.333v85.333zM743.538 307.666h-85.333v-85.333h85.333v85.333zM857.316 307.666h-85.333v-85.333h85.333v85.333z" />
<glyph unicode="&#xe90e;" glyph-name="card1" d="M893.497 115.018h-755.052c-28.718 0-51.996 23.12-51.996 51.541v355.032h859.022v-355.1c0-28.353-23.256-51.473-51.974-51.473zM838.11 302.911h-80.532v-80.509h80.532v80.509zM730.726 302.911h-80.532v-80.509h80.532v80.509zM623.343 302.911h-80.532v-80.509h80.532v80.509zM86.448 680.994c0 28.376 23.279 51.45 51.996 51.45h755.075c28.718 0 51.974-23.074 51.974-51.45v-109.272h-859.045v109.272z" />
<glyph unicode="&#xe90f;" glyph-name="wechat1" d="M540.012 630.818c0 24.462-16.020 40.3-40.027 40.3-24.030 0-48.128-15.815-48.128-40.3 0.023-24.166 24.144-40.414 48.128-40.414 23.984-0.023 40.027 16.225 40.027 40.414zM276.093 671.095c-23.984 0-48.265-15.815-48.265-40.3 0-24.166 24.257-40.414 48.265-40.414 23.916 0 39.913 16.247 39.913 40.414-0.023 24.485-15.997 40.3-39.913 40.3zM978.489 331.56c0 127.886-117.373 236.863-261.461 248.218 0.205 1.57 0.296 3.254-0.046 4.892-28.922 136.146-173.761 238.797-336.964 238.797-184.434 0-334.507-129.98-334.507-289.769 0-85.743 43.304-162.975 125.338-223.892l-28.604-86.903c-1.843-5.643-0.159-11.856 4.278-15.77 2.708-2.367 6.121-3.595 9.557-3.595 2.207 0 4.46 0.523 6.531 1.547l107.383 54.318 13.244-2.708c33.064-6.872 61.622-12.811 96.757-12.811 10.354 0 20.844 0.478 31.13 1.365 4.187 0.364 7.691 2.48 10.103 5.53 38.707-97.917 145.431-168.619 270.996-168.619 32.154 0 64.74 7.851 93.935 15.246l82.785-45.739c2.185-1.252 4.619-1.889 7.009-1.889 3.254 0 6.531 1.138 9.148 3.3 4.597 3.777 6.485 9.967 4.779 15.656l-21.14 71.066c70.884 56.616 109.75 124.336 109.75 191.761zM413.491 274.057c-1.525 0.41-3.118 0.683-4.801 0.523-9.489-0.819-19.092-1.229-28.626-1.229-32.199 0-59.415 5.621-90.908 12.197l-18.318 3.732c-3.14 0.66-6.463 0.25-9.353-1.274l-80.441-40.687 20.912 63.465c2.025 6.212-0.205 12.993-5.484 16.725-80.805 56.934-121.788 126.316-121.788 206.165-0.023 143.542 136.943 260.324 305.334 260.324 148.844 0 280.622-91.523 307.814-213.265-156.035-2.071-282.328-112.959-282.328-249.151 0-19.82 2.958-39.026 7.987-57.526zM843.162 157.093c-4.892-3.709-6.94-10.103-5.211-15.997l13.767-46.353-56.57 31.289c-2.162 1.229-4.574 1.843-6.986 1.843-1.206 0-2.389-0.159-3.573-0.478-30.333-7.737-61.759-15.724-92.342-15.724-142.040 0-257.593 98.668-257.593 219.932s115.553 219.91 257.593 219.91c139.332 0 257.070-100.716 257.070-219.91 0.023-60.484-37.683-122.47-106.155-174.512zM604.001 436.668c-15.997 0-31.994-16.293-31.994-32.449 0-16.27 15.997-32.336 31.994-32.336 24.075 0 39.959 16.065 39.959 32.336 0 16.202-15.883 32.449-39.959 32.449zM779.856 436.668c-15.747 0-31.767-16.293-31.767-32.449 0-16.27 16.020-32.336 31.767-32.336 23.984 0 40.186 16.065 40.186 32.336 0 16.202-16.179 32.449-40.186 32.449z" />
<glyph unicode="&#xe910;" glyph-name="wechat" d="M685.124 596.776c10.945 0 21.8-0.796 32.586-2.002-29.286 135.441-175.013 236.066-341.333 236.066-185.936 0-338.261-125.952-338.261-285.878 0-92.319 50.677-168.141 135.35-226.941l-33.838-101.126 118.261 58.937c42.303-8.306 76.277-16.862 118.488-16.862 10.604 0 21.14 0.501 31.585 1.343-6.622 22.46-10.422 46.012-10.422 70.451-0.023 146.819 126.908 266.012 287.585 266.012zM494.774 694.306c26.601 0 44.214-18.068 44.214-45.511 0-27.307-17.613-45.648-44.214-45.648-26.487 0-53.043 18.341-53.043 45.648 0 27.443 26.556 45.511 53.043 45.511zM250.812 603.147c-26.465 0-53.202 18.341-53.202 45.648 0 27.443 26.715 45.511 53.18 45.511 26.487 0 44.1-18.068 44.1-45.511 0.023-27.307-17.613-45.648-44.078-45.648zM993.849 334.746c0 134.394-135.327 243.962-287.334 243.962-160.927 0-287.698-109.545-287.698-243.962 0-134.622 126.771-243.94 287.698-243.94 33.678 0 67.675 8.442 101.513 16.862l92.774-50.495-25.441 83.991c67.903 50.654 118.488 117.783 118.488 193.582zM582.246 375.546c-21.55 0-43.304 22.551-43.304 45.579 0 22.687 21.754 45.534 43.304 45.534 32.745 0 54.204-22.847 54.204-45.534 0-23.029-21.436-45.579-54.204-45.579zM802.907 375.546c-21.413 0-43.031 22.551-43.031 45.579 0 22.687 21.504 45.648 38.912 45.648 26.374 0 58.3-22.96 58.3-45.648 0-23.029-21.732-45.579-54.181-45.579z" />
<glyph unicode="&#xe911;" glyph-name="a1" d="M234.246 552.63c41.256 115.712 151.666 198.428 281.691 198.428 56.707 0 109.614-15.952 154.852-43.395l-54.977-96.165 298.917-150.801c-4.619 216.155-181.18 390.144-398.791 390.144-173.579 0-320.99-110.933-375.808-265.444 13.926-72.977 80.009-57.048 94.117-32.768v0 0zM795.011 344.735c-43.145-112.162-151.734-191.852-279.074-191.852-58.322 0-112.572 16.953-158.47 45.784l48.651 77.596-288.859 165.888c5.211-215.632 181.612-388.71 398.746-388.71 174.649 0 322.651 112.117 376.832 268.151 16.27 47.468-63.215 113.027-97.826 23.142v0 0z" />
<glyph unicode="&#xe912;" glyph-name="morning" d="M951.159 116.133h-870.354c-34.338 0-62.168 27.83-62.168 62.168s27.83 62.168 62.168 62.168h288.199c-28.558 33.678-46.444 76.754-46.444 124.359 0 106.815 86.608 193.377 193.445 193.377 106.815 0 193.422-86.562 193.422-193.377 0-47.605-17.909-90.658-46.444-124.359h288.176c34.361 0 62.168-27.83 62.168-62.168s-27.807-62.168-62.168-62.168zM902.849 316.541h-96.802c-26.67 0-48.31 21.595-48.31 48.31s21.641 48.356 48.31 48.356h96.802c26.715 0 48.31-21.641 48.31-48.356s-21.595-48.31-48.31-48.31zM773.871 507.597c-18.478-18.432-48.31-18.432-66.765 0s-18.455 48.333 0 66.788l66.765 66.742c18.478 18.478 48.356 18.478 66.81 0 18.455-18.432 18.455-48.333 0-66.742l-66.81-66.788zM515.982 606.561c-26.715 0-48.356 21.663-48.356 48.378v96.711c0 26.715 21.663 48.356 48.356 48.356s48.356-21.641 48.356-48.356v-96.711c0.023-26.715-21.641-48.378-48.356-48.378zM276.639 535.791l-68.38 68.358c-18.887 18.887-18.887 49.516 0 68.38 18.864 18.887 49.493 18.887 68.38 0l68.358-68.38c18.887-18.887 18.887-49.471 0-68.358-18.864-18.887-49.471-18.887-68.358 0zM274.25 364.851c0-26.715-21.686-48.31-48.356-48.31h-96.711c-26.715 0-48.356 21.595-48.356 48.31s21.641 48.356 48.356 48.356h96.711c26.67 0 48.356-21.641 48.356-48.356z" />
<glyph unicode="&#xe913;" glyph-name="after" d="M943.741 388.654h-107.497c-29.65 0-53.703 23.984-53.703 53.658s24.075 53.703 53.703 53.703h107.497c29.673 0 53.703-24.030 53.703-53.703s-24.053-53.658-53.703-53.658zM800.449 600.917c-20.48-20.434-53.703-20.434-74.229 0-20.434 20.503-20.434 53.771 0 74.206l74.229 74.206c20.503 20.503 53.726 20.503 74.206 0 20.503-20.457 20.503-53.703 0-74.206l-74.206-74.206zM513.889 227.385c-118.716 0-214.949 96.256-214.949 214.926s96.233 214.949 214.949 214.949c118.693 0 214.926-96.256 214.926-214.949 0-118.67-96.21-214.926-214.926-214.926zM513.889 710.918c-29.673 0-53.726 24.121-53.726 53.771v107.474c0 29.628 24.053 53.703 53.726 53.703 29.65 0 53.726-24.075 53.726-53.703v-107.474c0-29.65-24.053-53.771-53.726-53.771zM247.945 632.274l-75.981 75.981c-20.981 20.958-20.981 55.046 0 76.004 20.981 21.003 55.023 21.003 75.981 0l75.981-76.004c20.981-21.003 20.981-55 0-75.981s-54.977-20.981-75.981 0zM245.282 442.311c0-29.696-24.121-53.658-53.771-53.658h-107.452c-29.673 0-53.726 23.984-53.726 53.658s24.053 53.703 53.726 53.703h107.452c29.673 0 53.771-24.007 53.771-53.703zM281.077 229.979c20.503 20.503 53.726 20.503 74.206 0 20.457-20.503 20.457-53.703 0-74.206l-74.206-74.206c-20.48-20.503-53.703-20.503-74.229 0-20.457 20.457-20.457 53.658 0 74.206l74.229 74.206zM513.889 173.682c29.65 0 53.726-24.098 53.726-53.749v-107.497c0-29.582-24.075-53.658-53.726-53.658-29.673 0-53.726 24.098-53.726 53.658v107.497c0.023 29.673 24.075 53.749 53.726 53.749zM779.81 252.348l76.026-75.981c21.026-21.003 21.026-55.046 0-76.026-20.935-20.981-55-20.981-76.026 0l-75.958 76.026c-20.958 21.003-20.958 55 0 75.981 21.003 20.981 55 20.981 75.958 0z" />
<glyph unicode="&#xe914;" glyph-name="night" d="M753.892 794.203c-192.216 0-348.092-155.83-348.092-348.114 0-192.262 155.876-348.092 348.092-348.092 62.692 0 120.764 17.886 171.622 46.922-89.293-112.572-225.599-186.163-380.496-186.163-269.153 0-487.333 218.158-487.333 487.333s218.18 487.356 487.333 487.356c154.897 0 291.203-73.637 380.496-186.231-50.859 29.036-108.931 46.99-171.622 46.99z" />
<glyph unicode="&#xe915;" glyph-name="xingfull" d="M808.801-21.993c-2.526 0-5.074 0.614-7.373 1.866l-286.788 150.71-286.857-150.71c-5.279-2.799-11.81-2.435-16.725 1.206-4.847 3.55-7.282 9.512-6.258 15.519l54.795 319.374-232.061 226.19c-4.324 4.187-5.848 10.536-3.982 16.225 1.866 5.757 6.827 9.899 12.811 10.763l320.649 46.603 143.383 290.566c5.325 10.877 23.12 10.877 28.444 0l143.474-290.566 320.626-46.603c6.007-0.865 10.968-5.006 12.789-10.763 1.866-5.689 0.319-12.060-4.005-16.225l-232.084-226.19 54.841-319.374c1.024-6.007-1.456-11.947-6.303-15.519-2.753-2.048-6.076-3.072-9.375-3.072z" />
<glyph unicode="&#xe916;" glyph-name="star1" d="M816.287-39.174c-3.618 0-7.259 0.865-10.581 2.617l-290.884 152.895-290.907-152.872c-7.691-4.050-16.953-3.368-23.962 1.729s-10.513 13.722-9.034 22.255l55.569 323.903-235.338 229.376c-6.19 6.053-8.442 15.11-5.757 23.324s9.808 14.245 18.386 15.497l325.245 47.241 145.385 294.684c7.669 15.519 33.155 15.565 40.801 0l145.454-294.684 325.222-47.241c8.579-1.252 15.679-7.259 18.386-15.497 2.662-8.238 0.455-17.271-5.757-23.324l-235.315-229.399 55.478-323.88c1.456-8.533-2.048-17.158-9.034-22.255-3.959-2.89-8.647-4.369-13.358-4.369zM514.822 164.807c3.641 0 7.282-0.865 10.581-2.617l260.642-136.988-49.721 290.247c-1.274 7.373 1.183 14.905 6.531 20.139l210.876 205.574-291.453 42.325c-7.418 1.070-13.813 5.734-17.135 12.447l-130.321 264.078-130.276-264.055c-3.322-6.713-9.717-11.378-17.135-12.447l-291.476-42.325 210.898-205.574c5.348-5.211 7.805-12.766 6.531-20.139l-49.812-290.27 260.688 137.011c3.3 1.729 6.94 2.594 10.581 2.594z" />
<glyph unicode="&#xe917;" glyph-name="xin" d="M515.982-32.893c-5.825 0-11.651 2.23-16.088 6.667l-406.482 406.528c-52.77 52.725-81.829 122.857-81.829 197.45s29.059 144.725 81.829 197.473c52.725 52.747 122.834 81.806 197.404 81.806 74.661 0 144.794-29.059 197.45-81.829l27.716-27.671 27.716 27.694c52.725 52.747 122.834 81.806 197.45 81.806s144.703-29.059 197.427-81.829c52.77-52.725 81.852-122.857 81.852-197.473 0-74.593-29.059-144.703-81.852-197.427l-406.505-406.528c-4.437-4.437-10.263-6.667-16.088-6.667zM290.816 811.52c-62.418 0-121.082-24.326-165.205-68.471-44.191-44.169-68.517-102.855-68.517-165.296s24.326-121.105 68.494-165.251l390.394-390.44 390.372 390.417c44.191 44.169 68.54 102.855 68.54 165.274 0 62.441-24.326 121.151-68.517 165.296-44.123 44.146-102.787 68.471-165.228 68.471-62.418 0-121.128-24.326-165.274-68.471l-43.804-43.759c-8.875-8.875-23.256-8.875-32.154 0l-43.827 43.736c-44.1 44.191-102.787 68.494-165.274 68.494z" />
<glyph unicode="&#xe918;" glyph-name="xinfull" d="M514.844-9.114v0c-4.187 0-8.169 1.707-11.173 4.619l-400.589 400.703c-50.722 50.699-78.643 118.17-78.643 189.918 0 71.703 27.898 139.196 78.643 189.941 50.699 50.699 118.101 78.666 189.895 78.666s139.264-27.967 190.009-78.666l31.881-31.972 31.949 31.972c50.722 50.699 118.261 78.666 189.986 78.666 71.794 0 139.173-27.967 189.895-78.666 50.722-50.745 78.757-118.238 78.757-189.941 0-71.726-28.012-139.218-78.757-189.918l-400.589-400.703c-3.026-2.913-7.031-4.619-11.264-4.619z" />
<glyph unicode="&#xe919;" glyph-name="biaoqian" d="M951.66 445.315l-408.963 411.398c-16.316 16.384-38.047 25.6-61.167 25.6h-312.798c-47.696 0-90.977-39.299-90.977-87.154v-314.072c0-23.211 11.241-45.010 27.557-61.417l410.123-411.261c16.293-16.452 38.593-25.463 61.668-25.463s45.102 9.011 61.417 25.463l312.98 314.072c16.361 16.43 25.441 38.207 25.441 61.349 0.023 23.233-8.92 45.102-25.281 61.486zM927.448 346.783l-312.798-314.072c-19.706-19.843-54.158-19.843-73.887 0l-411.216 411.307c-9.876 9.899-17.545 23.051-17.545 37.069v314.072c0 28.922 27.967 52.747 56.73 52.747h312.821c13.972 0 27.102-5.621 36.978-15.519l408.917-411.375c9.853-9.899 15.314-23.12 15.314-37.092 0-14.063-5.461-27.216-15.314-37.137zM429.852 691.143c-49.721 10.991-100.557-6.895-131.709-45.852-24.963-31.266-34.27-72.044-25.441-111.935 10.786-48.833 49.175-87.313 97.781-98.122 9.808-2.207 19.82-3.322 29.673-3.322 39.845 0 77.073 17.931 102.013 49.198 24.986 31.221 34.27 72.021 25.463 111.912-10.809 48.765-49.175 87.313-97.781 98.122zM473.065 504.525c-22.346-27.898-58.527-40.755-94.481-32.722-33.974 7.532-61.85 35.544-69.359 69.678-6.349 28.695 0.25 57.981 18.091 80.282 17.84 22.323 44.396 35.157 72.886 35.157 7.168 0 14.382-0.819 21.595-2.435 33.997-7.555 61.85-35.521 69.404-69.632 6.281-28.695-0.319-57.981-18.136-80.327z" />
<glyph unicode="&#xe91a;" glyph-name="bus" d="M409.145 203.605h194.173v38.844h-194.173v-38.844zM914.045 766.714h-796.149c-53.544 0-97.098-43.531-97.098-97.075v-368.981c0-54.454 29.855-97.075 67.948-97.075h48.56v38.844h-48.56c-13.471 0-29.104 25.463-29.104 58.231v368.981c0 32.131 26.101 58.277 58.254 58.277h796.149c32.131 0 58.277-26.123 58.277-58.277v-368.981c0-31.516-17.772-58.231-38.866-58.231h-58.254v-38.844h58.254c42.894 0 77.71 43.554 77.71 97.075v368.981c0 53.567-43.577 97.075-97.121 97.075zM273.249 339.502c-64.239 0-116.531-52.224-116.531-116.486s52.27-116.531 116.531-116.531 116.508 52.27 116.508 116.531-52.27 116.486-116.508 116.486zM273.249 145.328c-42.849 0-77.665 34.884-77.665 77.687s34.816 77.642 77.665 77.642c42.826 0 77.687-34.839 77.687-77.642s-34.862-77.687-77.687-77.687zM739.305 339.502c-64.216 0-116.554-52.224-116.554-116.486s52.338-116.531 116.554-116.531c64.239 0 116.486 52.27 116.486 116.531s-52.247 116.486-116.486 116.486zM739.305 145.328c-42.849 0-77.687 34.884-77.687 77.687s34.839 77.642 77.687 77.642c42.78 0 77.665-34.839 77.665-77.642s-34.884-77.687-77.665-77.687zM331.48 689.072h-233.017v-213.606h233.017v213.606zM292.659 514.287h-155.352v135.919h155.352v-135.919zM640.182 689.072h-248.377v-213.606h248.377v213.606zM601.361 514.287h-170.712v135.919h170.712v-135.919zM933.456 689.072h-232.971v-213.606h232.971v213.606zM894.612 514.287h-155.307v135.919h155.307v-135.919z" />
<glyph unicode="&#xe91b;" glyph-name="change" d="M804.386 348.49v-79.599h-159.198l-39.799 79.599-39.799-79.599 39.799-79.599 194.947 1.661 4.050-81.26 159.198 119.398-159.198 119.398zM127.75 627.086h159.198l79.622-79.599 39.799 79.599-79.599 79.622h-199.020c-67.948 0-67.948-79.622 0-79.622zM804.386 627.086v-79.599l159.198 119.421-159.198 119.398v-79.599h-159.198l-358.241-437.817h-159.198c-67.948 0-67.948-79.599 0-79.599h199.020l345.68 438.318 131.937-0.523z" />
<glyph unicode="&#xe91c;" glyph-name="char" d="M912.816 37.035c-1.024 10.695-7.646 66.97-36.545 130.526-29.582 65.035-89.361 151.871-206.188 195.994l-9.17 3.459 8.283 5.302c78.985 50.449 126.157 136.488 126.157 230.127 0 150.437-121.719 272.771-271.36 272.771-149.572 0-271.292-122.334-271.292-272.748 0-90.385 44.464-174.74 118.943-225.667l7.782-5.279-8.806-3.345c-141.494-53.749-237.158-186.755-238.023-331.162v-0.614l0.341-0.523c3.095-4.938 14.404-21.026 29.787-21.026 10.377 0 21.117 7.236 31.903 21.55l0.387 0.501 0.068 0.592c1.274 12.516 9.739 78.279 49.721 144.976 25.623 42.758 58.937 76.8 98.987 101.262 50.017 30.47 110.66 45.989 180.201 45.989 81.215 0 155.557-29.446 215.177-85.083 55.865-52.201 95.482-125.884 111.548-207.44l0.091-0.41 0.205-0.364c5.211-8.784 17.658-23.643 31.357-23.643 10.103 0 20.275 7.714 30.060 22.869l0.478 0.637-0.091 0.751zM523.992 812.635c115.28 0 209.078-94.276 209.078-210.148s-93.776-210.148-209.078-210.148c-115.257 0-209.033 94.254-209.033 210.148s93.776 210.148 209.033 210.148v0z" />
<glyph unicode="&#xe91d;" glyph-name="clock" d="M515.982-24.132c-263.76 0-478.345 214.585-478.345 478.345 0 263.782 214.585 478.39 478.345 478.39s478.345-214.608 478.345-478.39c0-263.76-214.585-478.345-478.345-478.345zM515.982 887.091c-238.66 0-432.833-194.196-432.833-432.879 0-238.66 194.173-432.833 432.833-432.833s432.833 194.173 432.833 432.833c0 238.683-194.173 432.879-432.833 432.879zM515.982 362.689c-50.472 0-91.523 41.074-91.523 91.568 0 50.449 41.074 91.5 91.523 91.5 50.495 0 91.568-41.051 91.568-91.5-0.023-50.517-41.074-91.568-91.568-91.568zM515.982 500.247c-25.372 0-46.012-20.639-46.012-45.989 0-25.395 20.639-46.057 46.012-46.057 25.395 0 46.057 20.662 46.057 46.057-0.023 25.35-20.662 45.989-46.057 45.989zM515.982 500.247c-12.561 0-22.756 10.194-22.756 22.756v244.258c0 12.561 10.194 22.756 22.756 22.756s22.756-10.194 22.756-22.756v-244.258c0-12.561-10.194-22.756-22.756-22.756zM833.24 431.502h-248.468c-12.584 0-22.756 10.194-22.756 22.756s10.172 22.756 22.756 22.756h248.468c12.584 0 22.756-10.194 22.756-22.756s-10.172-22.756-22.756-22.756z" />
<glyph unicode="&#xe91e;" glyph-name="close2" d="M515.959 904.385c-254.498 0-460.39-207.167-460.39-460.368 0-254.475 205.892-460.368 460.39-460.368 253.201 0 460.368 205.892 460.368 460.368 0.023 253.201-207.167 460.368-460.368 460.368zM746.291 271.826l-57.89-57.845-171.804 171.804-171.804-171.804-57.867 57.845 171.827 171.827-172.715 172.715 57.867 57.867 172.692-172.715 172.715 172.715 57.867-57.867-172.692-172.715 171.804-171.827z" />
<glyph unicode="&#xe91f;" glyph-name="code" d="M31.653 382.236h968.658v123.54h-968.658v-123.54zM562.859 938.041h-93.753v-370.506h93.753v370.506zM469.106-49.983h93.753v370.483h-93.753v-370.483zM875.338 73.535h-249.97v-123.517h374.966v370.483h-124.974v-246.966zM656.589 320.501v-185.253h124.996v185.253h-124.996zM31.653-49.983h374.966v370.483h-374.966v-370.483zM156.626 197.006h124.996v-123.472h-124.996v123.472zM625.368 938.041v-370.506h374.966v370.506h-374.966zM875.338 691.052h-124.996v123.494h124.996v-123.494zM406.619 938.041h-374.966v-370.506h374.966v370.506zM281.623 691.052h-124.996v123.494h124.996v-123.494z" />
<glyph unicode="&#xe920;" glyph-name="delete" d="M404.184 145.237c10.331 0 18.705 8.078 18.705 18.091v391.623c0 10.012-8.374 18.113-18.705 18.113-10.354 0-18.705-8.101-18.705-18.113v-391.623c0-10.012 8.351-18.091 18.705-18.091zM628.645 145.237c10.331 0 18.682 8.078 18.682 18.091v391.623c0 10.012-8.351 18.113-18.682 18.113-10.354 0-18.728-8.101-18.728-18.113v-391.623c0-10.012 8.374-18.091 18.728-18.091zM853.060 734.993h-673.337c-10.331 0-18.705-8.124-18.705-18.113 0-10.012 8.374-18.136 18.705-18.136h56.115v-639.932c0-42.234 35.499-76.663 79.144-76.663h402.864c43.6 0 79.144 34.429 79.144 76.663v639.932h56.092c10.354 0 18.705 8.124 18.705 18.136-0.023 9.99-8.374 18.113-18.728 18.113zM759.558 58.812c0-22.3-18.682-40.437-41.711-40.437h-402.864c-23.006 0-41.734 18.136-41.734 40.437v639.932h486.309v-639.932zM647.327 879.946h-261.848v-37.41h261.848v37.41z" />
<glyph unicode="&#xe921;" glyph-name="deng" d="M212.56 776.636c-12.47 12.447-32.7 12.447-45.17 0-12.493-12.493-12.493-32.7 0-45.193l45.17-45.124c12.47-12.47 32.677-12.47 45.147 0s12.47 32.677 0 45.124l-45.147 45.193zM819.382 776.636l-45.147-45.193c-12.493-12.447-12.493-32.677 0-45.124 12.447-12.47 32.677-12.47 45.147 0l45.147 45.124c12.493 12.493 12.493 32.722 0 45.193-12.447 12.447-32.677 12.447-45.147 0zM132.688 523.844h-63.852c-17.658 0-31.949-14.29-31.949-31.903 0-17.704 14.29-31.994 31.949-31.994h63.852c17.636 0 31.926 14.29 31.926 31.994 0.023 17.613-14.29 31.903-31.926 31.903zM963.106 523.844h-63.898c-17.613 0-31.949-14.29-31.949-31.881 0-17.704 14.336-31.994 31.949-31.994h63.898c17.613 0 31.926 14.29 31.926 31.994 0 17.59-14.29 31.881-31.926 31.881zM484.011 891.142v-63.875c0-17.636 14.313-31.926 31.949-31.926 17.613 0 31.949 14.29 31.949 31.926v63.875c0 17.658-14.313 31.949-31.949 31.949s-31.949-14.29-31.949-31.949zM292.386 443.995c0 123.494 100.102 223.596 223.573 223.596s223.596-100.102 223.596-223.596c0-123.472-100.102-223.573-223.596-223.573-123.472 0.023-223.573 100.102-223.573 223.573zM228.511 443.995c0-158.788 128.683-287.471 287.448-287.471s287.425 128.683 287.425 287.471c0 158.766-128.66 287.448-287.425 287.448-158.743 0-287.448-128.683-287.448-287.448zM452.085-3.129c0-17.636 14.29-31.926 31.926-31.926h63.898c17.613 0 31.926 14.29 31.926 31.926 0 17.59-14.313 31.926-31.926 31.926h-63.898c-17.613 0.023-31.926-14.313-31.926-31.926zM388.21 92.672c0-17.636 14.268-31.926 31.926-31.926h191.625c17.636 0 31.926 14.29 31.926 31.926 0 17.658-14.29 31.926-31.926 31.926h-191.625c-17.636 0.023-31.926-14.29-31.926-31.926z" />
<glyph unicode="&#xe922;" glyph-name="qian" d="M515.937 16.805c-57.64 0-113.664 11.264-166.298 33.587-50.722 21.413-96.438 52.201-135.76 91.523-39.185 39.231-70.019 84.878-91.546 135.782-22.369 52.77-33.655 108.681-33.655 166.366 0 57.663 11.287 113.596 33.587 166.252 21.595 50.927 52.429 96.62 91.546 135.782 39.276 39.185 84.946 69.951 135.805 91.546 52.725 22.3 108.681 33.587 166.32 33.587 80.942 0 159.653-22.733 227.692-65.695 7.441-4.619 9.489-14.404 4.87-21.754-2.958-4.619-7.873-7.441-13.312-7.441-2.981 0-5.916 0.842-8.442 2.412-63.056 39.936-135.896 60.939-210.807 60.939-218.18 0-395.674-177.471-395.674-395.651s177.493-395.651 395.674-395.651c218.089 0 395.583 177.471 395.583 395.651 0 68.13-17.454 135.282-50.79 194.15-4.301 7.578-1.547 17.294 5.939 21.527 2.344 1.365 5.006 2.048 7.714 2.048 5.78 0 11.082-3.118 13.767-8.055 35.999-63.579 55.137-136.078 55.137-209.67 0-57.754-11.355-113.687-33.61-166.275-21.413-50.722-52.201-96.461-91.591-135.805-39.276-39.344-84.969-70.11-135.737-91.5-52.816-22.391-108.749-33.655-166.411-33.655zM484.784 197.575l3.777 95.892-121.31 3.777 3.777 46.33 113.755-3.8 3.777 73.114-121.31 3.8 3.777 46.012 95.278-3.777-117.692 231.265 67.903-5.552 81.124-173.761c4.642-9.785 10.012-22.141 15.861-37.137l8.351 0.091c4.255 12.038 9.717 24.849 16.521 38.548l84.946 174.376 63.192-2.116-125.952-220.114 100.466-5.598-3.846-46.034-110.137 3.8-3.732-73.091 117.806-3.8-3.868-46.308-110.091 3.777-3.755-99.556h-58.618v-0.137z" />
<glyph unicode="&#xe923;" glyph-name="drink" d="M518.417-56.604c-270.086 0-489.813 219.705-489.813 489.768 0 270.108 219.728 489.882 489.813 489.882 270.108 0 489.859-219.773 489.859-489.882 0-270.063-219.75-489.768-489.859-489.768zM518.417 877.534c-244.986 0-444.302-199.339-444.302-444.37 0-244.964 199.316-444.257 444.302-444.257 245.009 0 444.348 199.293 444.348 444.257 0 245.032-199.339 444.37-444.348 444.37zM540.991 553.335l111.32 160.040h-67.334l-128.046-160.040h-141.426l61.463-344.951h281.372l61.417 344.951h-178.768zM593.92 278.357h-152.53l-48.515 204.982h249.537l-48.492-204.982z" />
<glyph unicode="&#xe924;" glyph-name="fangdajing" d="M916.116 90.192l-181.885 161.701c22.482 28.171 40.801 59.506 54.522 93.548 18.478 45.716 27.785 94.276 27.785 144.316s-9.307 98.6-27.785 144.316c-17.84 44.237-43.418 84.014-76.004 118.17-32.677 34.247-70.724 61.121-113.118 79.94-44.032 19.524-90.772 29.423-138.968 29.423s-94.959-9.899-138.968-29.4c-42.416-18.842-80.486-45.716-113.141-79.963-32.563-34.156-58.118-73.91-75.981-118.17-18.455-45.716-27.807-94.276-27.807-144.316s9.353-98.6 27.807-144.316c17.863-44.26 43.418-83.991 75.981-118.147 32.654-34.27 70.724-61.167 113.141-79.94 44.032-19.524 90.772-29.468 138.968-29.468s94.936 9.944 138.991 29.468c35.248 15.633 67.402 36.841 96.028 63.147l183.023-162.611c5.348-4.779 12.015-7.122 18.682-7.122 7.782 0 15.519 3.231 21.14 9.535 10.331 11.674 9.262 29.537-2.412 39.89zM460.663 174.455c-165.114 0-299.486 141.449-299.486 315.301s134.349 315.301 299.486 315.301c165.16 0 299.463-141.449 299.463-315.301s-134.303-315.301-299.463-315.301z" />
<glyph unicode="&#xe925;" glyph-name="food" d="M618.678 642.173v-203.48l-65.673-63.693v-136.169c0-11.696-9.808-21.231-21.891-21.231-12.060 0-21.868 9.535-21.868 21.231v136.169l-65.673 63.693v203.48h-43.827v-221.070l65.673-63.67v-118.625c0-35.112 29.468-63.693 65.673-63.693s65.718 28.581 65.718 63.693v118.625l65.673 63.67v221.070h-43.804zM553.006 429.909l-0.296 212.309-43.804-0.046 0.319-212.309 43.782 0.046zM518.417-56.604c-270.086 0-489.813 219.705-489.813 489.768 0 270.108 219.728 489.882 489.813 489.882 270.108 0 489.859-219.773 489.859-489.882 0-270.063-219.75-489.768-489.859-489.768zM518.417 877.534c-244.986 0-444.302-199.339-444.302-444.37 0-244.964 199.316-444.257 444.302-444.257 245.009 0 444.348 199.293 444.348 444.257 0 245.032-199.339 444.37-444.348 444.37z" />
<glyph unicode="&#xe926;" glyph-name="glass" d="M509.793-56.263c-275.866 0-500.304 224.393-500.304 500.213 0 275.911 224.438 500.372 500.304 500.372s500.281-224.461 500.281-500.372c0-275.82-224.415-500.213-500.281-500.213zM509.793 898.81c-250.766 0-454.793-204.049-454.793-454.861 0-250.743 204.026-454.702 454.793-454.702s454.77 203.981 454.77 454.702c0 250.812-204.026 454.861-454.77 454.861zM751.093 238.057h-116.349c-32.085 0-50.95 34.862-66.105 62.874-2.708 5.029-6.144 11.355-8.761 15.588h-104.539c-5.143-5.234-14.017-18.022-20.139-26.897-19.183-27.671-35.749-51.564-58.368-51.564h-108.271c-35.112 0-75.162 40.050-75.162 75.162v138.217c0 35.112 40.027 75.162 75.162 75.162h482.532c35.135 0 75.207-40.027 75.207-75.162v-138.217c0-35.112-40.073-75.162-75.207-75.162zM450.173 362.030h118.17c18.978 0 28.399-17.408 40.3-39.413 5.894-10.9 19.661-36.363 27.17-39.185l115.257 0.159c10.263 0 29.696 19.41 29.696 29.65v138.194c0 10.263-19.433 29.65-29.696 29.65h-482.532c-10.263 0-29.65-19.388-29.65-29.65v-138.217c0-10.24 19.388-29.65 29.65-29.65h104.539c6.167 5.211 17.613 21.754 24.69 31.972 18.705 26.988 32.222 46.49 52.406 46.49zM216.132 435.143c-3.277 0-6.576 0.705-9.717 2.185-11.355 5.37-16.225 18.933-10.854 30.31l116.486 246.579c7.236 15.246 23.188 28.194 43.736 35.567 20.594 7.373 41.119 7.487 56.343 0.273 11.355-5.393 16.179-18.955 10.786-30.333s-18.978-16.156-30.333-10.786c-2.64 1.252-10.809 1.82-21.436-1.98-10.695-3.846-16.703-9.535-17.977-12.242l-116.463-246.556c-3.891-8.215-12.060-13.016-20.571-13.016zM803.567 435.143c-8.533 0-16.703 4.801-20.594 13.039l-116.577 246.579c-1.274 2.708-7.191 8.329-17.818 12.151-10.741 3.846-18.955 3.3-21.641 2.002-11.332-5.393-24.917-0.523-30.288 10.832-5.393 11.378-0.523 24.94 10.832 30.31 15.246 7.236 35.84 7.122 56.502-0.319 20.571-7.396 36.477-20.389 43.6-35.612l116.554-246.511c5.348-11.355 0.501-24.917-10.854-30.31-3.163-1.479-6.463-2.162-9.717-2.162z" />
<glyph unicode="&#xe927;" glyph-name="goods" d="M515.982-31.004c-261.916 0-475.022 213.060-475.022 474.954 0 261.962 213.083 475.068 475.022 475.068s475.022-213.129 475.022-475.068c0-261.894-213.083-474.954-475.022-474.954zM515.982 896.284c-249.378 0-452.267-202.911-452.267-452.312 0-249.333 202.889-452.198 452.267-452.198s452.267 202.866 452.267 452.198c0 249.401-202.889 452.312-452.267 452.312zM771.095 489.552h-493.705c-16.885 0-30.629 13.585-30.629 30.288v22.391c0 16.703 13.744 30.288 30.629 30.288h493.705c16.885 0 30.629-13.585 30.629-30.288v-22.391c-0.023-16.725-13.744-30.288-30.629-30.288zM277.367 549.74c-4.324 0-7.873-3.368-7.873-7.532v-22.391c0-4.142 3.527-7.532 7.873-7.532h493.705c4.324 0 7.873 3.368 7.873 7.532v22.391c0 4.142-3.527 7.532-7.873 7.532h-493.705zM725.925 188.245h-403.433c-24.576 0-44.555 19.729-44.555 44.009v268.675c0 6.281 5.097 11.378 11.378 11.378s11.378-5.097 11.378-11.378v-268.675c0-11.719 9.785-21.254 21.8-21.254h403.433c11.992 0 21.777 9.535 21.777 21.254v268.675c0 6.281 5.097 11.378 11.378 11.378s11.378-5.097 11.378-11.378v-268.675c0-24.28-19.979-44.009-44.533-44.009zM524.242 549.74c-1.343 0-2.708 0.228-4.005 0.728-4.961 1.866-122.015 45.898-157.833 70.201-12.811 8.67-20.708 22.46-22.209 38.798-1.798 19.752 6.098 40.892 20.617 55.159l8.738 8.624c12.925 12.675 30.743 19.911 48.902 19.911 18.523 0 34.77-7.396 45.716-20.844 26.442-32.518 63.215-135.805 69.814-154.692 1.297-1.843 2.048-4.096 2.048-6.531 0-6.372-5.211-11.241-11.605-11.378-0.023 0.023-0.091 0.023-0.182 0.023zM418.475 720.407c-12.083 0-24.394-5.006-32.95-13.38l-8.715-8.602c-9.626-9.466-15.087-23.939-13.904-36.887 0.592-6.645 3.231-15.883 12.311-22.027 24.394-16.589 93.525-44.601 129.957-58.846-13.312 36.159-39.777 104.175-58.596 127.317-6.576 8.010-16.543 12.425-28.103 12.425zM524.242 549.74c-2.913 0-5.757 1.115-7.942 3.231-3.163 3.072-4.255 7.691-2.822 11.856 1.707 4.983 42.257 122.425 70.77 157.514 10.968 13.449 27.216 20.844 45.739 20.844 18.159 0 35.977-7.236 48.856-19.911l8.784-8.647c14.495-14.245 22.369-35.362 20.571-55.114-1.456-16.338-9.353-30.128-22.187-38.821-35.749-24.326-152.826-68.335-157.81-70.201-1.252-0.523-2.617-0.751-3.959-0.751zM630.010 720.407c-11.56 0-21.527-4.415-28.080-12.47-18.819-23.142-45.261-91.113-58.573-127.295 36.432 14.245 105.563 42.257 129.934 58.823 9.057 6.167 11.696 15.383 12.311 22.050 1.183 12.925-4.278 27.42-13.881 36.864l-8.761 8.647c-8.579 8.374-20.89 13.38-32.95 13.38zM549.66 188.245c-6.281 0-11.378 5.097-11.378 11.378v301.306c0 6.281 5.097 11.378 11.378 11.378s11.378-5.097 11.378-11.378v-301.306c0-6.281-5.074-11.378-11.378-11.378zM493.34 188.245c-6.281 0-11.378 5.097-11.378 11.378v301.306c0 6.281 5.097 11.378 11.378 11.378s11.378-5.097 11.378-11.378v-301.306c0-6.281-5.074-11.378-11.378-11.378z" />
<glyph unicode="&#xe928;" glyph-name="home" d="M796.74-7.088h-192.694c-12.584 0-22.756 10.172-22.756 22.756v251.676l-140.743-0.228 0.273-251.449c0-12.584-10.194-22.756-22.756-22.756h-192.034c-24.963 0-45.261 20.275-45.261 45.17v367.366h-144.998c-9.353 0-17.727 5.712-21.163 14.382-3.436 8.693-1.206 18.591 5.643 24.986l475.273 444.188c8.738 8.169 22.323 8.169 31.061 0l472.724-441.845c6.144-4.073 10.172-11.036 10.172-18.955 0-12.561-10.172-22.756-22.756-22.756-0.114 0-0.296-0.023-0.455 0h-144.953l0.705-367.388c0-24.895-20.298-45.147-45.284-45.147zM796.74 38.423v0zM93.457 450.958h110.046c12.561 0 22.756-10.194 22.756-22.756v-390.121l169.051 0.296v228.966c0 24.986 20.298 45.284 45.238 45.284h140.993c24.963 0 45.261-20.321 45.261-45.284v-228.944h169.711l-0.705 389.803c0 12.561 10.172 22.756 22.756 22.756h110.069l-417.587 390.281-417.587-390.281z" />
<glyph unicode="&#xe929;" glyph-name="load" d="M870.65-48.594h-729.475c-14.404 0-26.078 13.653-26.078 30.561v187.483c0 16.839 11.651 30.583 26.078 30.583 14.404 0 26.032-13.744 26.032-30.583v-156.922h677.41v156.922c0 16.839 11.628 30.583 26.055 30.583s26.055-13.744 26.055-30.583v-187.483c-0.046-16.93-11.651-30.561-26.078-30.561zM525.198 147.422c-1.092-1.161-2.435-1.752-3.595-2.685-1.547-1.252-2.935-2.662-4.665-3.504-3.14-1.525-6.485-2.367-9.876-2.367s-6.713 0.842-9.876 2.367c-1.843 0.865-3.391 2.412-5.006 3.823-1.070 0.865-2.253 1.343-3.231 2.367l-0.319 0.364c-0.023 0.023-0.023 0.091-0.023 0.091l-209.078 236.954c-10.354 11.719-10.627 31.061-0.614 43.213 9.967 12.129 26.533 12.47 36.818 0.751l165.251-187.324v657.545c0 16.862 11.651 30.561 26.055 30.561 14.382 0 26.078-13.699 26.078-30.561v-657.545l165.183 187.324c10.331 11.719 26.806 11.378 36.796-0.751 10.035-12.151 9.785-31.494-0.546-43.213l-209.351-237.409z" />
<glyph unicode="&#xe92a;" glyph-name="lock" d="M948.042 333.153h-280.713c-24.758 0-45.397-20.662-45.397-45.42v-280.713c0-24.758 20.639-45.42 45.397-45.42h280.713c24.735 0 45.352 20.662 45.352 45.42v280.713c0 24.758-20.617 45.42-45.352 45.42zM782.928 44.18l-86.744 86.676 33.041 33.064 53.68-53.68 111.411 111.411 33.041-32.973-144.43-144.498zM683.895 767.693h55.319c1.343 0 2.617-0.046 3.937-0.182 1.206-0.114 2.367-0.341 3.686-0.614 1.343-0.296 2.594-0.637 3.436-0.91 1.252-0.41 2.435-0.865 3.709-1.434 1.161-0.501 2.276-1.092 3.004-1.502 1.252-0.705 2.389-1.434 3.527-2.23 1.047-0.774 2.094-1.593 2.958-2.344 0.933-0.842 1.889-1.707 2.867-2.776 0.956-1.024 1.866-2.116 2.526-2.935 0.683-0.887 1.343-1.82 2.389-3.527 0.66-1.001 1.32-2.071 1.798-3.095 0.569-1.183 1.206-2.367 1.866-4.028 0.478-1.252 0.887-2.503 1.274-3.595 0.387-1.343 0.683-2.731 1.024-4.233 0.296-1.479 0.478-2.935 0.614-4.415 0.159-1.434 0.25-2.913 0.25-4.415v-363.338h43.44v363.315c0 2.958-0.159 5.848-0.455 8.693-0.25 2.822-0.683 5.575-1.161 8.192-0.546 2.731-1.252 5.507-2.094 8.374-0.751 2.708-1.684 5.325-2.571 7.532-1.024 2.571-2.162 5.097-3.413 7.6-1.343 2.549-2.753 5.006-3.891 6.645-1.434 2.458-3.14 4.801-5.143 7.35-1.638 2.048-3.322 4.005-4.961 5.757-1.866 1.957-3.8 3.891-5.985 5.712-2.002 1.752-4.073 3.391-6.235 4.915-2.048 1.502-4.278 2.89-6.872 4.392-2.344 1.365-4.756 2.594-7.122 3.641-2.458 1.115-4.961 2.071-7.919 3.095-2.549 0.796-5.166 1.525-7.691 2.048-2.731 0.569-5.53 1.047-8.442 1.365-2.844 0.296-5.598 0.432-8.397 0.432h-55.319c-12.038 0-21.754-9.739-21.754-21.732 0.023-11.992 9.739-21.754 21.8-21.754zM144.134 57.196c-1.297 0.137-2.617 0.41-3.482 0.569-1.138 0.228-2.367 0.569-4.119 1.161-1.001 0.319-2.071 0.751-3.163 1.252-1.092 0.455-2.139 0.978-3.504 1.775-1.024 0.523-2.025 1.206-3.163 2.048-0.956 0.66-1.889 1.411-3.004 2.367-0.978 0.842-1.889 1.775-2.799 2.662-0.865 0.933-1.684 1.957-2.617 3.118-0.819 1.024-1.547 2.094-2.344 3.322-0.683 1.070-1.32 2.23-1.82 3.209-0.66 1.343-1.274 2.708-1.638 3.55-0.501 1.297-0.978 2.571-1.479 4.392-0.387 1.252-0.66 2.389-0.956 3.959-0.228 1.343-0.455 2.662-0.592 4.301-0.182 1.411-0.25 2.935-0.25 4.392v626.187c0 1.502 0.068 2.981 0.25 4.642 0.137 1.411 0.319 2.799 0.614 4.324 0.273 1.229 0.546 2.503 1.047 4.096 0.41 1.365 0.887 2.685 1.115 3.413 0.614 1.434 1.274 2.844 1.82 3.959 0.614 1.161 1.206 2.298 2.071 3.641 0.728 1.092 1.411 2.139 2.207 3.118 0.887 1.092 1.798 2.185 2.503 2.958 0.865 0.933 1.775 1.866 3.118 3.004 0.887 0.774 1.82 1.456 2.981 2.298 1.047 0.728 2.185 1.434 3.163 2.002 1.070 0.614 2.162 1.183 3.209 1.638 1.206 0.523 2.435 1.001 3.482 1.365 1.161 0.387 2.412 0.751 3.709 1.024 1.229 0.25 2.412 0.478 3.709 0.614 1.297 0.114 2.617 0.205 3.937 0.205h55.319c11.992 0 21.686 9.739 21.686 21.732s-9.717 21.709-21.709 21.709h-55.319c-2.844 0-5.689-0.137-8.442-0.432-2.822-0.296-5.621-0.774-8.329-1.343-2.685-0.569-5.37-1.32-8.124-2.185-2.571-0.865-5.074-1.843-7.6-2.958-2.48-1.092-4.892-2.321-7.373-3.732-2.344-1.388-4.574-2.822-6.508-4.187-2.298-1.638-4.528-3.391-6.235-4.892-2.025-1.775-3.959-3.618-6.076-5.825-1.798-1.866-3.459-3.823-5.097-5.894-1.684-2.162-3.254-4.392-4.597-6.485-1.57-2.321-2.867-4.71-4.346-7.464-1.138-2.253-2.185-4.574-3.413-7.509-0.978-2.549-1.889-5.097-2.503-7.35-0.865-2.776-1.57-5.712-2.094-8.442-0.546-2.844-0.956-5.643-1.183-8.306-0.296-2.844-0.478-5.757-0.478-8.738v-626.187c0-2.935 0.182-5.825 0.432-8.442 0.296-2.981 0.728-5.78 1.229-8.351 0.523-2.935 1.229-5.871 1.957-8.169 0.774-2.662 1.661-5.279 2.89-8.397 1.024-2.435 2.071-4.801 3.322-7.145 1.32-2.571 2.617-4.938 4.028-7.145 1.479-2.276 3.049-4.528 4.597-6.485 1.707-2.139 3.436-4.233 5.279-6.167 1.889-1.957 3.8-3.777 5.666-5.37 2.071-1.775 4.233-3.55 6.372-5.029 2.276-1.593 4.619-3.118 6.667-4.301 2.389-1.388 4.892-2.617 7.327-3.686 2.64-1.252 5.325-2.276 7.509-2.89 2.594-0.933 5.325-1.684 8.511-2.367 2.685-0.523 5.393-0.978 7.669-1.252 2.935-0.364 5.916-0.455 8.897-0.455h444.393v43.418h-444.37c-1.206-0.023-2.367-0.023-3.959 0.159zM628.486 761.549l-10.9 44.919c-4.028 16.566-23.211 41.256-59.915 41.256l-28.786-0.023c-2.776 10.627-8.055 30.219-10.377 38.866-5.006 19.092-28.149 39.777-56.73 39.822l-13.699 0.046-22.983-0.046c-27.898 0-50.95-20.48-56.229-39.504-2.321-8.306-7.305-28.444-9.899-38.958l-0.023-0.182-10.536 0.046-24.804-0.046c-24.576 0-48.993-22.209-53.589-41.279-1.911-8.010-5.234-21.345-9.079-36.682l-2.025-8.101c-3.618-14.313-0.66-28.558 8.283-40.050 9.125-11.696 23.734-18.91 38.116-18.91l1.183 0.046c11.924 0.296 189.417 0.091 253.724 0l22.687-0.023c13.926 0 28.171 7.1 37.183 18.5 8.897 11.378 11.901 25.691 8.397 40.3zM586.092 748.282c-0.865-1.206-2.617-2.025-3.163-2.094l-22.665 0.023c-64.649 0.046-242.916 0.296-254.862-0.023h-0.023c-0.751 0-2.708 0.751-3.846 2.207-0.614 0.705-0.796 1.32-0.432 2.731l2.002 8.078c3.823 15.451 7.236 28.945 8.829 35.954 1.616 3.459 8.693 8.966 11.742 9.057l24.713 0.046 14.245-0.046c18.455 0 33.087 11.196 37.319 28.444l1.183 4.801c2.526 10.172 7.327 29.65 9.421 37.183 1.024 2.276 7.077 8.215 14.541 8.215l22.983 0.068 13.585-0.023c7.805-0.046 13.995-5.803 14.837-7.509 2.731-10.058 9.216-34.611 11.378-43.008 4.346-16.589 19.046-28.171 35.84-28.171l15.201-0.023 19.115 0.023c13.835 0 17.203-8.055 17.249-8.055l10.945-44.874c0.501-2.071 0.068-2.685-0.137-3.004zM564.793 596.571l-117.692-170.598c-0.705-1.229-2.435-2.435-3.595-2.435-1.229 0-3.026 1.229-3.664 2.435l-117.646 170.598c-7.282 9.648-21.686 12.607-31.266 5.416-10.877-7.191-13.198-21.049-6.645-31.858l135.168-194.583h-101.581c-7.76 0-14.973-7.191-14.973-15.064 0-8.988 7.191-16.134 14.973-16.134h102.741v-65.513h-102.741c-7.76 0-14.973-7.145-14.973-15.656 0-8.351 7.191-15.565 14.973-15.565h102.741v-94.868c0-12.629 10.263-22.278 22.892-22.278 12.516 0 22.756 9.648 22.756 22.278l-0.046 94.891h102.741c8.488 0 15.041 7.191 15.041 15.565 0 8.488-6.554 15.656-15.041 15.656h-102.741v65.49h102.741c8.488 0 15.041 7.145 15.041 16.134 0 7.873-6.554 15.064-15.041 15.064h-100.875l134.531 194.583c7.191 10.763 4.21 24.644-6.030 31.858-10.194 7.191-24.553 4.233-31.79-5.416z" />
<glyph unicode="&#xe92b;" glyph-name="notice" d="M882.847 18.011h-717.505c-33.701 0-61.099 25.395-61.099 56.616s27.398 56.616 61.099 56.616h717.528c33.724 0 61.167-25.395 61.167-56.616s-27.443-56.616-61.19-56.616zM165.342 97.132c-14.859 0-26.965-10.081-26.965-22.482s12.083-22.505 26.965-22.505h717.528c14.905 0 27.034 10.081 27.034 22.482s-12.129 22.482-27.034 22.482h-717.528zM570.505 836.392c-9.421 0-17.067 7.646-17.067 17.067v38.525c0 5.894-12.607 20.321-29.127 20.321-16.475 0-29.036-14.427-29.036-20.321v-38.525c0-9.421-7.646-17.067-17.067-17.067s-17.067 7.646-17.067 17.067v38.525c0 25.168 27.58 54.454 63.169 54.454 35.635 0 63.26-29.286 63.26-54.454v-38.525c0-9.421-7.646-17.067-17.067-17.067zM164.022 97.132c-5.825 0-11.514 3.004-14.7 8.374-4.801 8.101-2.116 18.569 6.007 23.37 0 0 0 0 0 0-0.159 0 21.641 18.159 21.641 94.481v319.465c0 176.765 155.739 320.58 347.159 320.58s347.182-143.815 347.182-320.58v-319.465c0-72.158 24.28-96.37 24.53-96.597 6.69-6.417 7.145-17.158 0.887-23.984-6.281-6.872-16.703-7.532-23.666-1.434-3.686 3.231-35.886 33.997-35.886 122.015v319.465c0 157.946-140.447 286.447-313.048 286.447s-313.048-128.501-313.048-286.447v-319.465c0-96.256-31.972-120.058-38.389-123.858-2.708-1.616-5.712-2.367-8.67-2.367zM524.083-39.834c-44.1 0-79.986 33.61-79.986 74.911 0 9.421 7.646 17.067 17.067 17.067s17.067-7.646 17.067-17.067c0-22.482 20.571-40.778 45.852-40.778 25.259 0 45.83 18.295 45.83 40.778 0 9.421 7.646 17.067 17.067 17.067s17.067-7.646 17.067-17.067c-0.023-41.301-35.886-74.911-79.963-74.911z" />
<glyph unicode="&#xe92c;" glyph-name="park" d="M524.766-63.841c-277.572 0-503.421 225.803-503.421 503.376 0 277.618 225.826 503.467 503.421 503.467s503.421-225.849 503.421-503.467c-0.023-277.572-225.849-503.376-503.421-503.376zM524.766 897.49c-252.496 0-457.91-205.437-457.91-457.956 0-252.45 205.414-457.865 457.91-457.865 252.473 0 457.91 205.392 457.91 457.865-0.023 252.518-205.437 457.956-457.91 457.956zM412.945 100.796c-12.561 0-22.756 10.172-22.756 22.756v235.566c0 0.046 0 0.091 0 0.137v371.416c0 12.538 10.149 22.71 22.687 22.756l161.018 0.501c115.302 0 209.078-93.776 209.078-209.033 0-115.234-93.753-209.010-209.010-209.010l-138.263 0.478v-212.81c0-12.561-10.172-22.756-22.756-22.756zM435.701 381.872l138.331-0.478c90.089 0 163.43 73.341 163.43 163.499s-73.341 163.521-163.499 163.521l-138.263-0.455v-326.087z" />
<glyph unicode="&#xe92d;" glyph-name="position" d="M506.266-49.96c-6.167 0-12.060 2.503-16.361 6.94l-264.67 273.772c-6.667 6.098-14.199 13.198-21.413 20.685-73.296 77.141-113.596 177.994-113.596 284.126 0 227.123 184.752 411.898 411.853 411.898 227.123 0 411.944-184.775 411.944-411.898 0-103.219-38.252-201.682-107.77-277.686-0.683-1.070-1.479-2.071-2.367-3.026l-281.077-297.688c-4.278-4.506-10.194-7.1-16.407-7.122-0.046 0-0.091 0-0.137 0zM502.079 901.951c-202.001 0-366.342-164.363-366.342-366.387 0-94.413 35.84-184.138 100.944-252.655 6.463-6.69 13.312-13.175 20.298-19.57l249.082-257.593 262.053 277.55c0.637 0.933 1.365 1.843 2.162 2.685 63.351 67.948 98.236 156.581 98.236 249.56 0 202.047-164.386 366.41-366.433 366.41zM502.101 343.962c-106.86 0-193.809 86.949-193.809 193.832s86.926 193.832 193.809 193.832c106.883 0 193.877-86.949 193.877-193.832s-86.994-193.832-193.877-193.832zM502.101 686.091c-81.761 0-148.298-66.537-148.298-148.321s66.514-148.321 148.298-148.321c81.806 0 148.366 66.537 148.366 148.321s-66.56 148.321-148.366 148.321z" />
<glyph unicode="&#xe92e;" glyph-name="praise" d="M236.749-16.282h-96.347c-36.5 0-66.219 29.696-66.219 66.196v458.365c0 34.065 23.78 62.145 60.598 71.543l95.186 29.833c6.918 2.185 14.427 0.933 20.275-3.368 5.825-4.278 9.284-11.082 9.284-18.341v-581.45c-0.023-12.607-10.217-22.778-22.778-22.778zM213.993 556.954l-66.788-20.89c-17.658-4.551-27.511-14.814-27.511-27.785v-458.365c0-11.401 9.284-20.685 20.708-20.685h73.591v527.724zM748.794-16.282h-512.046c-12.561 0-22.756 10.172-22.756 22.756s10.194 22.756 22.756 22.756h512.046c102.628 0 117.35 52.52 117.942 54.75 0.455 2.321 62.1 321.559 73.956 411.602 3.709 28.24-1.115 50.563-14.359 66.355-21.936 26.146-61.008 28.558-61.372 28.581l-341.424-0.023c-7.646 0-14.768 3.846-18.978 10.217s-4.938 14.45-1.934 21.481c46.33 108.294 53.999 188.188 22.187 231.060-24.849 33.473-69.018 38.525-90.999 38.798l-115.553-291.999c-2.458-6.19-7.509-11.014-13.835-13.175l-60.348-20.503c-11.924-4.028-24.826 2.344-28.877 14.222-4.050 11.901 2.321 24.826 14.222 28.877l50.381 17.112 117.123 296.027c3.095 7.828 10.286 13.312 18.637 14.245 3.937 0.41 96.506 9.853 145.749-56.457 38.958-52.474 37.547-134.599-4.096-244.395h308.702c3.391-0.137 60.234-3.095 95.255-44.828 21.777-25.987 30.060-60.143 24.599-101.535-12.038-91.386-72.021-402.022-74.57-415.198-0.865-4.142-21.117-90.726-162.406-90.726z" />
<glyph unicode="&#xe92f;" glyph-name="railway" d="M518.576 857.691c-188.37 0-341.606-208.964-341.606-454.633 0-245.646 153.236-454.656 341.606-454.656 188.302 0 341.561 209.033 341.561 454.656 0 245.692-153.281 454.633-341.561 454.633zM518.576-15.212c-169.529 0-307.45 192.626-307.45 418.27 0 225.621 137.921 418.27 307.45 418.27 169.506 0 307.405-192.649 307.405-418.27 0-225.644-137.921-418.27-307.405-418.27zM518.576 748.601c-141.266 0-256.205-161.838-256.205-345.543 0-63.374 13.312-104.539 41.916-129.502 28.74-25.122 68.654-28.49 103.925-28.49 15.952 0 32.973 0.796 50.768 1.638 38.457 1.729 80.668 1.729 119.057 0 17.863-0.842 34.907-1.638 50.813-1.638 87.563 0 145.886 26.897 145.886 157.992 0.023 183.706-114.938 345.543-256.159 345.543zM628.873 281.407c-15.519 0-32.040 0.796-49.311 1.593-19.547 0.933-39.822 1.82-60.985 1.82-21.231 0-41.461-0.887-61.053-1.82-17.317-0.796-33.792-1.593-49.311-1.593-41.438 0-66.037 6.053-82.239 20.23-19.843 17.294-29.446 50.54-29.446 101.422 0 163.59 99.601 309.157 222.049 309.157 122.425 0 221.98-145.567 221.98-309.157 0-103.378-35.999-121.651-111.684-121.651zM518.576 193.957c-47.104 0-85.424-40.846-85.424-90.931 0-50.13 38.343-90.931 85.424-90.931 47.058 0 85.356 40.801 85.356 90.931 0 50.085-38.32 90.931-85.356 90.931zM518.576 48.481c-28.262 0-51.268 24.394-51.268 54.522 0 30.037 23.006 54.522 51.268 54.522 28.24 0 51.246-24.485 51.246-54.522 0-30.128-23.029-54.522-51.246-54.522zM680.778 230.252c-23.552 0-42.712-20.321-42.712-45.42 0-25.077 19.16-45.42 42.712-45.42s42.712 20.366 42.712 45.42c0 25.122-19.16 45.42-42.712 45.42zM680.778 175.73c-4.733 0-8.533 4.096-8.533 9.102 0 4.983 3.8 9.102 8.533 9.102s8.533-4.142 8.533-9.102c0-5.006-3.8-9.102-8.533-9.102zM339.217 230.252c-23.529 0-42.689-20.321-42.689-45.42 0-25.077 19.16-45.42 42.689-45.42s42.689 20.366 42.689 45.42c0 25.122-19.16 45.42-42.689 45.42zM339.217 175.73c-4.688 0-8.533 4.096-8.533 9.102 0 4.983 3.846 9.102 8.533 9.102 4.71 0 8.533-4.142 8.533-9.102 0-5.006-3.846-9.102-8.533-9.102zM723.49 930.441h-426.985v-36.363h426.985v36.363z" />
<glyph unicode="&#xe930;" glyph-name="smile" d="M525.471-58.721c-277.208 0-502.738 225.53-502.738 502.693 0 277.231 225.53 502.784 502.738 502.784s502.716-225.553 502.716-502.784c0-277.163-225.508-502.693-502.716-502.693zM525.471 901.245c-252.109 0-457.227-205.141-457.227-457.273 0-252.086 205.119-457.159 457.227-457.159s457.205 205.096 457.205 457.159c0 252.132-205.119 457.273-457.205 457.273zM261.211 520.75c0 40.391 32.722 73.114 73.114 73.114s73.114-32.722 73.114-73.114c0-40.391-32.722-73.159-73.114-73.159s-73.114 32.768-73.114 73.159zM643.482 520.75c0 40.391 32.722 73.114 73.114 73.114s73.159-32.722 73.159-73.114c0-40.391-32.745-73.159-73.159-73.159s-73.114 32.768-73.114 73.159zM525.449 297.768c-35.817 0-70.702 12.789-98.236 35.977-9.603 8.078-10.854 22.437-2.753 32.063 8.101 9.603 22.46 10.832 32.063 2.731 39.299-33.087 98.623-33.041 137.853 0 9.648 8.124 23.962 6.849 32.063-2.731 8.078-9.626 6.872-23.984-2.731-32.063-27.534-23.188-62.418-35.977-98.258-35.977z" />
<glyph unicode="&#xe931;" glyph-name="sold" d="M646.69 330.627c-5.871 1.911-42.689 18.295-19.684 87.45h-0.364c60.075 61.053 105.973 159.334 105.973 256.091 0 148.776-100.17 226.714-216.633 226.714-116.486 0-216.11-77.938-216.11-226.714 0-97.143 45.625-195.812 106.018-256.705 23.529-60.962-18.546-83.649-27.375-86.812-121.902-43.531-264.92-122.903-264.92-201.25v-29.355c0-106.724 209.579-131.004 403.547-131.004 194.219 0 401.203 24.257 401.203 131.004v29.355c0 80.714-143.77 159.448-271.656 201.227v0z" />
<glyph unicode="&#xe932;" glyph-name="tan" d="M451.174 663.723c0 36.614 29.491 66.537 67.038 66.537 36.227 0 65.718-29.468 65.718-66.537v-229.968c0-36.591-29.036-65.65-65.718-65.65-37.547 0-67.038 29.036-67.038 65.65v229.968zM441.776 236.396c0 41.506 34.429 75.89 76.436 75.89 39.777 0 75.071-34.384 75.071-75.89 0-41.552-35.294-75.958-75.071-75.958-42.007 0-76.436 34.406-76.436 75.958v0 0zM515.982 881.653c-241.687 0-437.635-195.925-437.635-437.635s195.948-437.635 437.635-437.635c241.687 0 437.612 195.925 437.612 437.635 0.023 241.71-195.903 437.635-437.612 437.635v0z" />
<glyph unicode="&#xe933;" glyph-name="tel" d="M773.279-40.812v0c-0.159 0-1.274 0-1.411 0-8.579 0.205-16.839 1.98-24.667 5.302-510.771 123.927-638.566 655.451-659.888 766.726-3.209 8.67-4.642 17.931-4.142 26.897 1.115 19.115 10.286 36.887 25.145 48.902l132.551 106.792c12.015 9.671 27.125 14.996 42.53 14.996 20.685 0 39.936-9.239 52.838-25.327l141.949-176.174c11.378-14.154 16.589-31.835 14.632-49.857-1.957-18-10.809-34.156-24.94-45.511l-120.491-97.075c56.57-174.353 179.814-264.238 223.255-291.408l82.352 101.126c22.96 27.967 67.493 32.495 95.369 9.694l175.468-142.905c14.063-11.492 22.824-27.762 24.622-45.807 1.82-18.022-3.504-35.658-14.973-49.653l-107.497-131.959c-12.72-15.701-31.926-24.758-52.702-24.758zM283.443 883.314c-3.573 0-8.92-0.865-13.972-4.938l-132.528-106.769c-4.961-4.005-7.919-9.717-8.306-16.043-0.159-2.958 0.432-6.258 1.729-9.375 0.592-1.434 1.024-2.913 1.32-4.437 19.206-101.922 139.742-616.266 628.213-733.48 1.502-0.387 2.981-0.887 4.369-1.525 2.708-1.297 5.575-1.957 8.556-2.025l0.478-22.756v22.756c4.096 0 11.81 1.024 17.454 7.987l107.566 132.050c3.8 4.619 5.53 10.399 4.961 16.293-0.592 5.962-3.482 11.287-8.101 15.064l-175.491 142.928c-5.074 4.164-10.399 5.029-13.972 5.029-6.736 0-13.084-3.026-17.408-8.26l-94.549-116.122c-4.301-5.279-10.809-8.374-17.636-8.374-11.446 0-204.709 100.989-276.776 345.156-2.617 8.852 0.364 18.386 7.555 24.166l132.551 106.792c4.688 3.755 7.578 9.057 8.215 14.973s-1.070 11.742-4.824 16.407l-141.995 176.219c-4.301 5.279-10.627 8.283-17.408 8.283z" />
<glyph unicode="&#xe934;" glyph-name="ticket" d="M986.726 112.629h-941.488c-12.561 0-22.756 10.172-22.756 22.756v199.202c0 12.584 10.194 22.756 22.756 22.756 49.539 0 89.839 41.21 89.839 91.841s-40.3 91.864-89.839 91.864c-12.561 0-22.756 10.194-22.756 22.756v199.225c0 12.561 10.194 22.756 22.756 22.756h941.488c12.584 0 22.756-10.194 22.756-22.756v-199.225c0-12.561-10.172-22.756-22.756-22.756-49.584 0-89.907-41.21-89.907-91.864s40.323-91.841 89.907-91.841c12.584 0 22.756-10.172 22.756-22.756v-199.202c0-12.584-10.194-22.756-22.756-22.756zM67.994 158.14h895.977v155.625c-63.875 11.014-112.663 67.561-112.663 135.418 0 67.88 48.811 124.427 112.663 135.418v155.671h-895.977v-155.648c63.829-11.014 112.594-67.538 112.594-135.418 0-67.857-48.765-124.405-112.594-135.418v-155.648zM328.249 656.646c-12.561 0-22.756 10.194-22.756 22.756v83.627c0 12.561 10.194 22.756 22.756 22.756s22.756-10.194 22.756-22.756v-83.627c0-12.561-10.194-22.756-22.756-22.756zM328.249 475.307c-12.561 0-22.756 10.194-22.756 22.756v83.627c0 12.561 10.194 22.756 22.756 22.756s22.756-10.194 22.756-22.756v-83.604c0-12.584-10.194-22.778-22.756-22.778zM328.249 293.968c-12.561 0-22.756 10.172-22.756 22.756v83.604c0 12.584 10.194 22.756 22.756 22.756s22.756-10.172 22.756-22.756v-83.604c0-12.584-10.194-22.756-22.756-22.756zM328.249 112.56c-12.561 0-22.756 10.172-22.756 22.756v83.672c0 12.584 10.194 22.756 22.756 22.756s22.756-10.172 22.756-22.756v-83.672c0-12.584-10.194-22.756-22.756-22.756z" />
<glyph unicode="&#xe935;" glyph-name="weizhi" d="M538.328 278.608v350.322c72.203 11.218 127.659 72.067 127.659 145.431 0 81.283-68.062 147.456-151.598 147.456-83.604 0-151.598-66.173-151.598-147.433 0-77.619 61.963-141.244 140.288-146.91v-348.433c-223.482-1.138-391.35-67.652-391.35-155.671 0-88.724 170.689-155.671 397.039-155.671 202.342 0 420.727 59.483 420.727 155.671 0 91.523-197.7 149.777-391.168 155.238zM398.541 774.383c0 62.123 51.951 112.64 115.826 112.64 63.852 0 115.803-50.517 115.803-112.64 0-62.1-51.951-112.663-115.803-112.663-63.852-0.023-115.826 50.54-115.826 112.663zM508.769 2.514c-212.901 0-361.244 63.693-361.244 120.878 0 56.707 145.772 119.74 355.556 120.878v-103.378c0-9.58 7.896-17.34 17.59-17.34 9.739 0 17.636 7.76 17.636 17.34v102.923c202.274-5.552 355.396-67.038 355.396-120.422 0.023-55.865-168.141-120.878-384.933-120.878z" />
<glyph unicode="&#xe936;" glyph-name="yao1" d="M530.113 558.023h-28.217c-7.805 0-14.108-6.394-14.108-14.245v-57.003c0-7.873 6.303-14.245 14.108-14.245h28.217c7.805 0 14.108 6.372 14.108 14.245v57.003c0 7.851-6.303 14.245-14.108 14.245zM530.113 700.518h-28.217c-7.805 0-14.108-6.372-14.108-14.245v-57.003c0-7.851 6.303-14.245 14.108-14.245h28.217c7.805 0 14.108 6.394 14.108 14.245v57.003c0 7.873-6.303 14.245-14.108 14.245zM967.521 595.297v133.734c0 47.195-37.888 85.493-84.673 85.493h-733.685c-46.763 0-84.651-38.298-84.651-85.493v-116.622c-0.137-7.987 0 2.116 0-25.896 0-15.747 12.902-21.345 28.217-28.49 6.827-3.186 13.266-4.779 20.958-9.808 38.252-18.25 63.693-58.641 63.693-104.198 0-45.761-25.054-85.925-63.579-105.586-9.011-4.528-12.743-6.144-21.072-8.442-15.588-4.665-28.217-12.766-28.217-28.49v-142.495c0-47.241 37.911-85.515 84.651-85.515h733.685c46.808 0 84.673 38.275 84.673 85.515v140.925c0 15.77-13.744 24.212-28.217 30.037-6.485 2.617-11.992 5.166-19.206 10.9-38.753 22.346-65.468 57.367-65.468 103.128 0 45.557 26.67 84.582 64.944 102.832-11.31-6.622 47.946 23.461 47.946 48.469zM805.41 444.018c0-74.433 50.085-138.604 115.78-162.111v-115.78c0-31.471-15.155-46.308-46.308-46.308h-717.824c-31.175 0-46.308 14.837-46.308 46.308v115.78c65.718 23.506 115.78 87.7 115.78 162.111s-50.062 138.604-115.78 162.088v92.638c0 31.471 15.155 69.473 46.308 69.473h717.824c31.152 0 46.308-14.837 46.308-46.308v-115.78c-127.181-45.511-115.78-162.111-115.78-162.111zM530.113 415.528h-28.217c-7.805 0-14.108-6.372-14.108-14.29v-56.98c0-7.873 6.303-14.222 14.108-14.222h28.217c7.805 0 14.108 6.349 14.108 14.222v56.98c0 7.873-6.303 14.29-14.108 14.29zM530.113 273.010h-28.217c-7.805 0-14.108-6.394-14.108-14.268v-56.98c0-7.873 6.303-14.268 14.108-14.268h28.217c7.805 0 14.108 6.394 14.108 14.268v56.98c0 7.873-6.303 14.268-14.108 14.268z" />
<glyph unicode="&#xe937;" glyph-name="yao2" d="M817.425 853.845h-54.682c-15.155 0-32.609-9.284-32.609-24.371 0-15.11 17.454-30.174 32.609-30.174h54.682c32.586 0 54.682-22.073 54.682-54.568v-628.076c0-32.518-22.118-54.568-54.682-54.568h-588.914c-32.586 0-68.676 22.073-68.676 54.568v628.076c0 32.495 22.118 54.568 54.704 54.568h68.676c15.132 0 20.958 15.087 20.958 30.174s-5.825 24.371-20.958 24.371h-68.654c-76.823 0-109.409-47.605-109.409-110.296v-621.090c0-67.356 40.732-114.961 115.211-114.961h591.212c74.479 0 115.234 39.458 115.234 114.961v621.090c0.023 62.692-38.411 110.296-109.386 110.296v0 0zM283.216 607.744c0-15.11 12.789-27.876 27.921-27.876h410.852c15.11 0 27.944 12.789 27.944 27.876s-12.811 27.853-27.944 27.853h-410.852c-15.11 0-27.921-12.789-27.921-27.853v0 0zM720.805 484.659h-409.668c-15.132 0-27.921-12.766-27.921-27.853 0-15.11 12.789-27.876 27.921-27.876h410.852c15.11 0 27.944 12.766 27.944 27.876-1.183 16.247-13.995 27.853-29.127 27.853v0 0zM720.805 320.956h-409.668c-15.132 0-27.921-12.766-27.921-27.853s12.789-27.876 27.921-27.876h410.852c15.11 0 27.944 12.789 27.944 27.876-1.183 16.27-13.995 27.853-29.127 27.853v0 0zM421.706 785.351h190.874c22.118 0 40.732 22.073 40.732 47.605s-18.614 47.605-41.87 47.605h-189.713c-23.279 0-41.893-22.073-41.893-47.605-0.023-25.532 18.591-47.605 41.87-47.605v0 0z" />
<glyph unicode="&#xe938;" glyph-name="yao3" d="M511.431 548.193c58.664 0 106.428 48.469 106.428 108.066s-47.764 108.066-106.428 108.066-106.382-48.492-106.382-108.066 47.718-108.066 106.382-108.066zM511.431 726.71c38.275 0 69.382-31.63 69.382-70.474s-31.107-70.474-69.382-70.474c-38.229 0-69.382 31.63-69.382 70.474s31.152 70.474 69.382 70.474zM511.431 100.523c58.664 0 106.428 48.492 106.428 108.089s-47.764 108.043-106.428 108.043-106.382-48.447-106.382-108.043 47.718-108.089 106.382-108.089zM511.431 279.063c38.275 0 69.382-31.607 69.382-70.451s-31.107-70.451-69.382-70.451c-38.229 0-69.382 31.607-69.382 70.451s31.152 70.451 69.382 70.451zM305.948 534.289c-58.687 0-106.405-48.469-106.405-108.066s47.741-108.066 106.405-108.066c58.664 0 106.382 48.469 106.382 108.066 0.023 59.597-47.696 108.066-106.382 108.066zM305.948 355.772c-38.275 0-69.382 31.607-69.382 70.451s31.13 70.474 69.382 70.474c38.252 0 69.382-31.63 69.382-70.474s-31.13-70.451-69.382-70.451zM716.459 318.18c58.687 0 106.428 48.469 106.428 108.066 0 59.574-47.741 108.066-106.428 108.066-58.664 0-106.382-48.469-106.382-108.066s47.718-108.066 106.382-108.066zM716.459 496.697c38.275 0 69.404-31.63 69.404-70.474 0-38.866-31.13-70.451-69.404-70.451s-69.382 31.607-69.382 70.451c0 38.844 31.107 70.474 69.382 70.474zM923.625 49.732h-414.31c-100.011 0-193.991 39.549-264.693 111.343-70.702 71.817-109.636 167.299-109.636 268.834s38.912 196.995 109.636 268.789c70.702 71.817 164.705 111.343 264.693 111.343s193.991-39.526 264.693-111.343c70.724-71.794 109.636-167.276 109.636-268.789 0-55-11.287-108.043-33.587-157.628-21.55-47.991-52.156-90.18-90.977-125.52-10.945-9.99-11.878-27.102-2.071-38.275 9.853-11.105 26.692-12.038 37.638-2.048 44.305 40.346 79.258 88.587 103.879 143.337 25.463 56.707 38.389 117.282 38.389 180.133 0 58.618-11.287 115.484-33.61 169.051-21.527 51.701-52.383 98.145-91.637 138.035-39.253 39.868-84.969 71.179-135.942 93.047-52.679 22.642-108.681 34.133-166.411 34.133-57.708 0-113.732-11.492-166.48-34.133-50.904-21.868-96.643-53.18-135.896-93.070-39.299-39.868-70.11-86.312-91.659-138.035-22.3-53.544-33.61-110.433-33.61-169.028 0-58.641 11.31-115.507 33.61-169.051 21.55-51.723 52.361-98.167 91.659-138.035 39.253-39.868 84.992-71.202 135.896-93.070 52.747-22.619 108.772-34.133 166.48-34.133h414.31c14.7 0 26.67 12.129 26.67 27.056s-11.969 27.056-26.67 27.056z" />
<glyph unicode="&#xe939;" glyph-name="yao5" d="M917.936 845.585c0 0 24.235 48.333-29.764 21.208l-45.761-140.129-12.743 35.544-31.79 9.125 36.295 103.811c0 0-4.187 43.85-31.13-10.399l-25.122-87.586-238.615 68.426-72.613-12.538-369.232-446.191c0 0-18.682-50.062 10.377-81.215l333.961-291.886c0 0 37.342-31.266 78.871-10.422l390.030 462.711c0 0 20.73 15.952 0 70.929l-55.478 154.123c0.023 0 36.204 98.054 62.714 154.487v0zM863.255 474.943l-352.438-424.892c-19.388-18.091-46.421-2.389-46.421-2.389l-315.824 278.528c-16.566 12.493-3.186 48.72-3.186 48.72l345.293 415.949 44.737 7.1 255.181-74.957 8.693-29.81-67.789-32.29c0 0-14.677 24.576-59.119 24.576-45.898 0-83.035-37.228-83.035-83.376 0-46.080 37.114-83.376 83.035-83.376 45.784 0 82.921 37.228 82.921 83.376 0 13.084-4.46 24.826-9.83 35.886l1.479-2.571 64.307 29.173 58.414-143.132c18.819-22.915-6.417-46.512-6.417-46.512v0zM713.796 602.101c0-22.938-18.523-41.665-41.392-41.665-22.96 0-41.506 18.819-41.506 41.665 0 23.188 18.546 41.643 41.506 41.643 22.847 0 41.392-18.523 41.392-41.643v0z" />
<glyph unicode="&#xe93a;" glyph-name="right" d="M926.060 614.366c17.34 17.545 26.487 39.231 27.42 65.058 0.978 25.873-7.191 47.514-24.53 65.058-17.362 17.567-38.502 26.101-63.534 25.6-25.054-0.478-46.194-9.489-63.556-27.034l-407.211-412.353-140.106 140.356c-17.294 17.545-38.502 26.556-63.534 27.034s-46.194-8.033-63.534-25.577-26.26-38.252-26.692-62.1c-0.478-23.916 7.942-44.624 25.236-62.168l200.75-204.663c17.34-17.59 39.982-26.123 67.903-25.646s50.495 9.512 67.834 27.056l-5.78-5.825 469.333 475.204z" />
<glyph unicode="&#xe93b;" glyph-name="seatloading" d="M91.022 701.065c0 0 0-345.725 0-484.602 0-66.196 34.679-121.151 100.511-121.151 70.133 0 447.010 0 625.778 0 73.91 0 115.666 51.974 115.666 121.151 0 142.404 0 484.602 0 484.602-3.618 41.597-89.702 78.711-123.221 40.368 0 24.576 8.92 54.34-20.867 78.234-53.567 3.777-102.241 2.549-266.627 2.549-154.556 0-216.223 2.708-270.791 1.274-45.557-26.169-37.228-59.779-37.228-82.034-33.496 33.496-121.56-0.273-123.221-40.391z" />
<glyph unicode="&#xe93c;" glyph-name="home11" d="M472.36 824.058l-386.503-273.294c-12.857-12.607-12.857-33.064 0-45.693 12.857-12.607 33.678-12.607 46.535 0l383.613 270.427 383.59-270.427c12.834-12.607 33.678-12.607 46.535 0 12.834 12.629 12.834 33.087 0 45.693l-386.503 273.294c-8.67 9.876-31.994 27.375-42.303 26.715-11.765 4.506-30.788-10.786-44.965-26.715v0zM236.772 432.003c-18.182 0-43.281-14.473-43.281-32.313v-231.606c0-47.559 39.299-86.13 87.745-86.13h469.493c48.447 0 87.723 38.571 87.723 86.13v231.629c0 17.84-3.163 32.313-21.345 32.313s-37.296-14.473-37.296-32.313v-186.14c0-40.437-33.382-73.227-74.615-73.227h-378.47c-41.21 0-74.593 32.768-74.593 73.227v186.14c0 17.84 2.822 32.29-15.36 32.29v0z" />
<glyph unicode="&#xe93d;" glyph-name="maipin" d="M837.7 765.759c-85.925 86.039-200.135 133.325-321.718 133.325-121.606 0-235.793-47.377-321.741-133.325s-133.325-200.249-133.325-321.741c0-121.606 47.377-235.793 133.325-321.741s200.249-133.325 321.741-133.325c121.515 0 235.793 47.377 321.741 133.325 85.948 85.925 133.325 200.226 133.325 321.741 0 121.606-47.377 235.793-133.348 321.741zM823.66 136.34c-82.125-82.148-191.442-127.477-307.678-127.477s-225.462 45.306-307.701 127.477c-82.148 82.125-127.454 191.442-127.454 307.678s45.306 225.462 127.454 307.701c82.239 82.148 191.465 127.454 307.701 127.454s225.462-45.306 307.678-127.454c82.261-82.148 127.477-191.465 127.477-307.701s-45.329-225.462-127.477-307.678zM505.697 546.964v-228.033c0-6.167 4.619-11.127 10.354-11.127 5.712 0 10.354 4.983 10.354 11.127v228.033c0 6.167-4.642 11.127-10.354 11.127-5.734 0.023-10.354-4.961-10.354-11.127zM451.721 628.315c0 0 32.563 22.756 64.262 22.756 30.083 0 59.369-22.756 59.369-22.756 6.053 0 10.968 4.779 10.968 10.672s-4.938 10.672-10.968 10.672c0 0-29.286 22.756-59.369 22.756-31.698 0-64.262-22.756-64.262-22.756-6.053 0-10.968-4.779-10.968-10.672s4.915-10.672 10.968-10.672zM641.229 620.237l-74.934-22.756c-6.053 0-10.945-4.779-10.945-10.65 0-5.894 4.915-10.672 10.945-10.672l74.934 22.756c19.115 0 34.657-15.155 34.657-33.746l-45.511-275.661c0-18.614-15.565-33.746-34.657-33.746h-164.386c-19.115 0-34.657 15.132-34.657 33.746l-45.511 275.661c0 18.614 15.565 33.746 34.657 33.746l75.321-22.756c6.053 0 10.968 4.779 10.968 10.672 0 5.871-4.915 10.65-10.968 10.65l-75.321 22.756c-31.198 0-56.57-24.713-56.57-55.091l45.511-275.661c0-30.379 25.395-55.114 56.593-55.114h164.386c31.198 0 56.57 24.735 56.57 55.114l45.511 275.661c0 30.379-25.372 55.091-56.593 55.091zM584.203 318.93l22.756 228.033c0 6.167-4.619 11.127-10.354 11.127-5.689 0-10.331-4.983-10.331-11.127l-22.756-228.033c0-6.167 4.642-11.127 10.331-11.127 5.712 0 10.354 4.983 10.354 11.127zM435.473 558.114c-5.712 0-10.354-4.983-10.354-11.127l22.756-228.033c0-6.167 4.642-11.127 10.354-11.127s10.354 4.983 10.354 11.127l-22.756 228.033c0 6.144-4.642 11.127-10.354 11.127z" />
<glyph unicode="&#xe93e;" glyph-name="quan" d="M399.656 846.495l275.638-338.489 7.214 320.398c-50.995 22.209-107.292 34.611-166.502 34.611-40.414 0-79.417-5.848-116.349-16.521zM149.14 646.337l434.267-44.396-221.48 231.674c-51.769-20.389-100.375-51.428-142.199-93.298-28.604-28.558-52.019-60.302-70.588-93.98zM113.527 327.691l338.466 275.706-320.421 7.168c-22.232-51.018-34.588-107.315-34.588-166.548 0-40.391 5.803-79.349 16.543-116.326zM313.64 77.198l44.396 434.267-231.606-221.503c20.343-51.746 51.382-100.329 93.298-142.222 28.49-28.558 60.234-51.996 93.912-70.542zM632.286 41.563l-275.661 338.466-7.236-320.421c51.063-22.187 107.338-34.611 166.616-34.611 40.323 0.023 79.349 5.894 116.281 16.566zM882.779 241.698l-434.244 44.373 221.48-231.629c51.746 20.389 100.352 51.405 142.222 93.298 28.558 28.535 51.996 60.279 70.542 93.958zM918.414 560.344l-338.466-275.684 320.398-7.191c22.209 51.063 34.611 107.338 34.611 166.571 0.023 40.346-5.848 79.394-16.543 116.304zM718.302 810.86l-44.396-434.244 231.652 221.457c-20.389 51.792-51.405 100.352-93.321 142.245-28.513 28.513-60.234 51.996-93.935 70.542z" />
<glyph unicode="&#xe93f;" glyph-name="share" d="M854.699 485.956c2.981-18.887 4.597-38.275 4.597-58.004 0-202.866-164.5-367.32-367.366-367.32s-367.32 164.477-367.32 367.32c0 202.866 164.477 367.366 367.32 367.366 19.729 0 39.117-1.593 58.004-4.597v39.117c-18.955 2.731-38.298 4.142-58.004 4.142-224.21 0-405.982-181.794-405.982-406.027 0-224.21 181.771-405.982 405.982-405.982 224.233 0 406.027 181.771 406.027 405.982 0 19.706-1.411 39.071-4.164 58.004h-39.094zM612.784 896.808v-38.662h282.032l-443.028-443.005 27.352-27.352 442.982 443.005v-281.987h38.662v348.001h-348.001zM922.123 854.278l-3.868 3.868h3.868v-3.868zM854.699 485.956c2.981-18.887 4.597-38.275 4.597-58.004 0-202.866-164.5-367.32-367.366-367.32s-367.32 164.477-367.32 367.32c0 202.866 164.477 367.366 367.32 367.366 19.729 0 39.117-1.593 58.004-4.597v39.117c-18.955 2.731-38.298 4.142-58.004 4.142-224.21 0-405.982-181.794-405.982-406.027 0-224.21 181.771-405.982 405.982-405.982 224.233 0 406.027 181.771 406.027 405.982 0 19.706-1.411 39.071-4.164 58.004h-39.094zM612.784 896.808v-38.662h282.032l-443.028-443.005 27.352-27.352 442.982 443.005v-281.987h38.662v348.001h-348.001zM922.123 854.278l-3.868 3.868h3.868v-3.868z" />
<glyph unicode="&#xe940;" glyph-name="wechat2" d="M418.725 330.49c-52.725-29.582-60.553 16.589-60.553 16.589l-66.105 155.147c-25.441 73.728 22.005 33.246 22.005 33.246s40.71-30.993 71.612-49.857c30.879-18.887 66.082-5.552 66.082-5.552l432.128 200.636c-79.713 99.806-211.467 165.046-360.516 165.046-243.348 0-440.593-173.648-440.593-387.823 0-123.199 65.331-232.858 167.049-303.9l-18.341-106.086c0 0-8.943-30.97 22.050-16.589 21.14 9.785 74.98 44.897 107.042 66.241 50.358-17.681 105.267-27.489 162.816-27.489 243.325 0 440.57 173.648 440.57 387.846 0 62.054-16.612 120.627-46.057 172.624-137.671-83.331-457.933-276.981-499.189-300.078z" />
<glyph unicode="&#xe941;" glyph-name="drinks" d="M772.142 613.706h-47.9l-36.409 76.413c-0.182 0.432-0.41 0.819-0.637 1.229-8.488 14.154-27.762 19.979-44.828 19.979h-113.778v68.267c0 40.391 14.313 45.511 45.511 45.511h113.778c24.394 0 24.394 45.511 0 45.511h-113.778c-51.86 0-91.022-17.818-91.022-91.022v-68.267h-113.778c-17.067 0-36.341-5.825-44.828-19.979-0.159-0.25-0.296-0.501-0.432-0.751l-40.027-76.891h-44.51c-16.247 0-29.446-12.925-29.446-28.922v-58.891c0-15.974 13.198-28.922 29.446-28.922h29.787l68.198-428.078c3.664-23.165 23.984-40.232 47.855-40.232h240.981c23.871 0 44.169 17.067 47.878 40.232l68.176 428.078h29.787c16.27 0 29.468 12.948 29.468 28.922v58.891c-0.023 15.997-13.221 28.922-29.491 28.922zM654.973 398.325l-25.941-180.178c-2.685-18.66-20.002-31.607-38.639-28.922-18.66 2.708-31.63 20.002-28.922 38.662l25.941 180.178c2.685 18.682 20.002 31.607 38.639 28.945 18.66-2.708 31.607-20.025 28.922-38.684z" />
</font>
</defs>
</svg>
